<?xml version="1.0" encoding="UTF-8" standalone="no"?>
<!-- Created by Freifunk Bodensee (https://ffbsee.de/) Lizenz: CC-BY-SA -->

<svg
   xmlns:dc="http://purl.org/dc/elements/1.1/"
   xmlns:cc="http://creativecommons.org/ns#"
   xmlns:rdf="http://www.w3.org/1999/02/22-rdf-syntax-ns#"
   xmlns:svg="http://www.w3.org/2000/svg"
   xmlns="http://www.w3.org/2000/svg"
   xmlns:sodipodi="http://sodipodi.sourceforge.net/DTD/sodipodi-0.dtd"
   xmlns:inkscape="http://www.inkscape.org/namespaces/inkscape"
   width="1845px"
   height="403px"
   viewBox="0 0 5535 1209"
   id="svg_ffbsee"
   version="1.1"
   inkscape:version="0.91 r13725"
   sodipodi:docname="logo.svg">
  <defs
     id="defs4941" />
  <sodipodi:namedview
     id="base"
     pagecolor="#ffffff"
     bordercolor="#666666"
     borderopacity="1.0"
     inkscape:pageopacity="0.0"
     inkscape:pageshadow="2"
     inkscape:zoom="0.88273235"
     inkscape:cx="1219.8647"
     inkscape:cy="263.11357"
     inkscape:document-units="px"
     inkscape:current-layer="layer1"
     showgrid="false"
     showguides="true"
     inkscape:guide-bbox="true"
     fit-margin-top="0"
     fit-margin-left="0"
     fit-margin-right="0"
     fit-margin-bottom="0"
     inkscape:window-width="1680"
     inkscape:window-height="985"
     inkscape:window-x="0"
     inkscape:window-y="0"
     inkscape:window-maximized="1">
    <sodipodi:guide
       position="2138.699,645.16253"
       orientation="0,1"
       id="guide5869" />
    <sodipodi:guide
       position="-0.11867946,1271.4424"
       orientation="1,0"
       id="guide5871" />
    <sodipodi:guide
       position="1359.7818,1218.1807"
       orientation="0,1"
       id="guide5873" />
    <sodipodi:guide
       position="1999.2853,653.03703"
       orientation="1,0"
       id="guide5875" />
    <sodipodi:guide
       position="1284.7547,-0.61427566"
       orientation="0,1"
       id="guide5877" />
    <sodipodi:guide
       position="901.58504,-207.67634"
       orientation="0,1"
       id="guide5990" />
    <sodipodi:guide
       position="3375.6054,215.11785"
       orientation="0,1"
       id="guide3411" />
  </sodipodi:namedview>
  <metadata
     id="metadata4944">
    <rdf:RDF>
      <cc:Work
         rdf:about="">
        <dc:format>image/svg+xml</dc:format>
        <dc:type
           rdf:resource="http://purl.org/dc/dcmitype/StillImage" />
        <dc:title />
      </cc:Work>
    </rdf:RDF>
  </metadata>
  <g
     inkscape:label="Ebene 1"
     inkscape:groupmode="layer"
     id="layer1"
     transform="translate(685.57434,175.48636)">
    <flowRoot
       xml:space="preserve"
       id="flowRoot5900"
       style="font-style:normal;font-weight:normal;font-size:40px;line-height:125%;font-family:sans-serif;letter-spacing:0px;word-spacing:0px;fill:#000000;fill-opacity:1;stroke:none;stroke-width:1px;stroke-linecap:butt;stroke-linejoin:miter;stroke-opacity:1"
       transform="translate(-681.15775,-187.48634)"><flowRegion
         id="flowRegion5902"><rect
           id="rect5904"
           width="1999.4039"
           height="179.43582"
           x="-4.5352678"
           y="1220.6235" /></flowRegion><flowPara
         id="flowPara5906"
         style="font-style:normal;font-variant:normal;font-weight:normal;font-stretch:normal;font-family:Lato;-inkscape-font-specification:Lato" /></flowRoot>    <ellipse
       ry="346.78555"
       rx="340.95471"
       id="circle3878"
       stroke-miterlimit="4"
       cy="319.88745"
       cx="787.6076"
       style="fill:none;stroke:#de2c68;stroke-width:16.60513496;stroke-miterlimit:4;stroke-dasharray:none;stroke-opacity:1" />
    <ellipse
       style="fill:none;stroke:#de2c68;stroke-width:15.55206966;stroke-miterlimit:4;stroke-dasharray:none;stroke-opacity:1"
       cx="305.27835"
       cy="304.60675"
       stroke-miterlimit="4"
       id="ellipse5364"
       rx="295.82196"
       ry="301.60593" />
    <path
       inkscape:connector-curvature="0"
       id="path3338"
       d="m 786.42911,1029.5351 c -7.71372,-1.0569 -15.09879,-2.7224 -16.41228,-3.7015 -1.31286,-0.9789 -9.65264,-7.2535 -18.53244,-13.9436 -18.84204,-14.1954 -34.28336,-21.0287 -49.71487,-22.00057 -6.93052,-0.43655 -13.09146,-2.77879 -16.54376,-6.28965 -3.02533,-3.07726 -11.81914,-7.0041 -19.5421,-8.72686 -15.75677,-3.51488 -19.57995,-7.02769 -25.1421,-23.10219 -3.48192,-10.06359 -5.13232,-11.6445 -16.59898,-15.90231 -20.49133,-7.60902 -30.775,-12.3635 -41.37029,-19.12749 -5.47006,-3.49197 -10.90416,-6.15796 -12.07549,-5.92424 -1.17121,0.23359 -13.25825,-6.66167 -26.85998,-15.32284 -13.60208,-8.66113 -29.38096,-17.61233 -35.06414,-19.8914 -12.44974,-4.99263 -19.55326,-17.29205 -20.66851,-35.78727 -0.40729,-6.75086 -2.38606,-16.59032 -4.39597,-21.86539 -3.13117,-8.21189 -5.7708,-10.45735 -18.3587,-15.61813 -8.08565,-3.31491 -16.4631,-5.67584 -18.61637,-5.24627 -2.15282,0.42948 -4.66872,-0.0278 -5.59043,-1.01619 -0.92174,-0.98838 -13.18118,-4.90465 -27.24386,-8.70286 -14.06247,-3.79824 -27.26584,-8.282 -29.34083,-9.96393 -2.07481,-1.68198 -5.58218,-2.71422 -7.7935,-2.29376 -2.21129,0.42049 -6.71993,-0.12251 -10.01906,-1.20631 -26.03867,-8.55469 -39.01303,-13.86701 -54.68898,-22.39273 -38.9955,-21.20883 -39.84493,-21.53677 -75.64375,-29.22248 -12.14432,-2.60714 -56.87495,-14.64123 -79.93089,-21.50411 -11.24484,-3.34703 -25.57537,-5.77486 -31.84563,-5.39516 -11.64258,0.70503 -38.064586,-4.37436 -41.408471,-7.9605 -2.378977,-2.55102 -38.897313,-12.62845 -42.882139,-11.8335 -1.658748,0.33092 -11.49639,-1.58273 -21.861081,-4.2526 -20.5470861,-5.29285 -36.526692,-16.39908 -43.484805,-30.22337 -2.195038,-4.36087 -6.032366,-9.29127 -8.527473,-10.9565 -6.828479,-4.55702 -32.515183,1.38082 -45.077271,10.42023 -24.935,17.94234 -35.55438,22.54146 -52.56747,22.76598 -8.75928,0.11525 -27.16417,1.71558 -40.89962,3.55552 -23.13854,3.09962 -25.90871,2.90825 -37.69891,-2.6046 -11.16685,-5.22107 -13.89332,-5.50467 -22.25669,-2.31515 -5.24222,1.99916 -40.639,9.65043 -78.65932,17.00278 -68.76925,13.29858 -69.17977,13.41051 -79.04677,21.54698 -5.45538,4.49843 -15.4291,10.72194 -22.1645,13.83009 -13.82299,6.37903 -27.26864,16.30699 -30.4445,22.47959 -6.56777,12.76489 -28.83091,38.27422 -35.87614,41.10747 -4.36879,1.7569 -11.02138,6.5772 -14.78335,10.71178 -3.76211,4.13464 -8.26221,7.8012 -10.00024,8.14794 -1.7382,0.34676 -6.35165,3.57051 -10.25221,7.16392 -3.90046,3.59334 -11.16744,7.35076 -16.14832,8.34968 -6.17104,1.23827 -11.09789,4.37029 -15.46518,9.83352 -4.21772,5.27616 -10.29109,9.22655 -17.76354,11.55418 -6.87428,2.1413 -13.20957,6.05797 -16.05572,9.9259 -6.72204,9.13519 -29.58064,13.61631 -40.69295,7.97723 -4.3503,-2.20772 -11.21011,-4.07768 -15.24411,-4.1555 -4.03359,-0.0781 -9.61439,-1.83334 -12.40133,-3.90114 -2.88785,-2.14258 -10.3737,-3.43955 -17.40504,-3.01558 -15.26589,0.92071 -21.98666,-3.35104 -15.95225,-10.13911 3.19618,-3.5954 8.4201,-5.13254 23.5114,-6.91803 10.67113,-1.26257 22.46967,-1.78017 26.21931,-1.15044 11.79552,1.98126 24.38896,-2.11831 43.19345,-14.06082 10.01341,-6.35934 24.85265,-14.96843 32.97651,-19.13136 8.1233,-4.16282 15.74753,-9.03404 16.94265,-10.82489 1.19548,-1.79105 4.00126,-3.62095 6.23576,-4.06669 2.23445,-0.44578 8.49304,-6.95814 13.90785,-14.47191 5.41484,-7.51373 14.02819,-16.6366 19.14102,-20.27301 5.11281,-3.63639 9.79901,-7.96135 10.41336,-9.61087 0.61467,-1.64961 4.04453,-3.58314 7.62231,-4.2969 10.83198,-2.16093 65.08058,-88.20753 62.80433,-99.61754 -0.59172,-2.96603 -4.44809,-7.22885 -8.56951,-9.47303 -4.12138,-2.24419 -9.80124,-5.48106 -12.62203,-7.19309 -2.82095,-1.71199 -9.54244,-3.06212 -14.93667,-3.0003 -5.39439,0.0618 -12.82502,-1.41866 -16.5128,-3.29002 -3.68756,-1.87135 -10.40951,-3.44848 -14.93792,-3.50467 -4.52836,-0.0562 -10.17724,-1.17087 -12.55326,-2.477 -2.37604,-1.30612 -9.03681,-2.8839 -14.80197,-3.50614 -5.76516,-0.62218 -12.2655,-2.06745 -14.44512,-3.21164 -4.09585,-2.14998 -18.01522,-6.52985 -37.79707,-11.89324 -6.2608,-1.69737 -14.42618,-5.95053 -18.1458,-9.45134 l -6.76295,-6.3651 8.76134,-11.88373 c 9.52235,-12.91595 35.57163,-29.24973 45.87738,-28.76675 31.09125,1.45715 33.53646,1.90727 64.44689,11.86309 21.32674,6.86917 33.36639,6.59327 31.90519,-0.73118 -0.75206,-3.76979 -22.78802,-16.4014 -27.10857,-15.53946 -2.2021,0.4393 -25.72562,-9.86268 -29.4924,-12.91596 -2.72538,-2.20925 -2.65627,-4.54665 0.30726,-10.38643 2.10314,-4.14457 5.24297,-7.81867 6.97684,-8.16456 3.3751,-0.67332 23.63653,4.9924 36.21239,10.12588 18.4128,7.51621 42.4298,14.73261 75.66738,22.73572 7.40715,1.78348 20.15859,4.8888 28.3364,6.90065 8.17798,2.01181 16.24426,3.38353 17.92511,3.04819 1.68085,-0.33531 7.63957,0.78364 13.24188,2.4865 5.60195,1.70296 11.88301,2.75761 13.95788,2.3437 2.07449,-0.41386 8.17346,0.58545 13.55301,2.22074 5.37974,1.63533 14.71855,3.30017 20.75264,3.6998 23.88804,1.58175 69.79235,27.47482 72.46568,40.87526 2.10829,10.568 -5.46164,14.71158 -33.8195,18.51212 l -25.29782,3.39034 -14.65094,-8.61566 c -25.9985,-15.28877 -30.62121,-16.78294 -48.90162,-15.8069 -24.886,1.32864 -23.8481,0.69577 -21.38517,13.04152 3.36018,16.84338 8.21948,21.83834 22.14711,22.76548 6.62291,0.44087 14.13532,1.9738 16.69429,3.40644 2.55881,1.43271 11.39792,2.36168 19.64256,2.06445 8.24448,-0.29723 18.26612,0.10588 22.27034,0.89585 4.12432,0.81363 11.17176,-0.0756 16.25736,-2.05149 4.9373,-1.91825 18.21146,-6.60434 29.49823,-10.41366 28.32031,-9.55813 32.32864,-8.32317 50.75495,15.63806 11.61068,15.09813 16.40374,19.30744 25.76681,22.62794 l 11.50271,4.07934 12.96262,-8.43254 c 7.12937,-4.63787 15.100499,-11.22383 17.713436,-14.63541 4.237971,-5.5332 7.553051,-6.69124 30.705376,-10.72641 18.317739,-3.19261 28.509339,-3.78272 34.637225,-2.00554 8.511864,2.46853 64.89847,-3.53431 71.407253,-7.60194 4.50742,-2.81671 1.037213,-13.58555 -7.507564,-23.29972 -4.313883,-4.90431 -9.386802,-12.82468 -11.273237,-17.60079 -4.417685,-11.18458 -22.70492434,-26.55395 -45.095071,-37.89974 -10.065571,-5.10047 -19.859254,-12.1793 -22.712997,-16.41678 -2.759384,-4.09748 -8.139506,-9.47596 -11.955486,-11.95227 -6.899052,-4.47691 -8.189149,-7.21466 -24.729368,-52.49236 -6.732451,-18.43036 -14.982055,-27.39981 -32.040077,-34.8359 -43.77546,-19.0831 -42.23396,-18.67632 -61.2267,-16.15612 -19.50351,2.58799 -29.61453,-0.0365 -51.88879,-13.46928 -15.52861,-9.3645 -31.23505,-14.32824 -61.57431,-19.45887 -13.86514,-2.34484 -26.60279,-4.82906 -28.30574,-5.5206 -1.70314,-0.69148 -6.73845,-2.79639 -11.18959,-4.67756 -9.26538,-3.91562 -101.34233,-66.09234 -101.89813,-68.80857 -0.19664,-0.98595 -3.36909,-3.00118 -7.03921,-4.48045 -7.85841,-3.16724 -15.29997,-20.47695 -12.61239,-29.33769 0.92021,-3.03389 7.19791,-9.61931 13.95057,-14.63422 9.89951,-7.35195 14.36119,-9.19605 23.03382,-9.52041 12.38452,-0.46317 17.94999,1.42761 42.43507,14.41769 26.58285,14.10302 34.31799,17.67495 37.08184,17.12358 1.37679,-0.27467 6.16349,1.49717 10.63659,3.93747 4.4731,2.44029 11.07858,4.74276 14.67894,5.11663 3.60034,0.37384 9.49183,2.16125 13.09222,3.972 3.60074,1.81063 9.82151,3.35537 13.82432,3.43265 4.00299,0.0774 10.37215,2.34789 14.15371,5.04596 3.78174,2.69804 7.9337,4.69453 9.22666,4.43658 1.29281,-0.25791 11.78422,5.62344 23.31407,13.06972 36.505,23.5757 35.21005,23.06725 53.81565,21.12908 11.06717,-1.15289 19.61528,-0.50628 24.65572,1.86498 4.24377,1.99629 9.08807,3.35588 10.7651,3.02133 1.67758,-0.33468 7.51361,1.21247 12.96931,3.43802 26.7961,10.93082 37.563998,14.68594 40.457627,14.10865 1.741829,-0.34746 7.808176,1.32691 13.480987,3.72087 5.672984,2.3939 13.036477,3.80952 16.362671,3.14596 3.326753,-0.66367 9.312632,0.44985 13.302144,2.47449 3.989697,2.0246 8.902331,3.35223 10.916724,2.95038 4.793139,-0.95621 25.536314,6.76296 39.6566479,14.75742 7.9831061,4.51972 12.0986961,8.84028 14.3673681,15.08251 1.748601,4.81152 5.719651,13.43377 8.824572,19.1605 3.104733,5.72675 7.204947,14.53223 9.111859,19.56763 2.76365,7.29886 7.850121,12.0035 25.083779,23.20103 11.889421,7.7251 27.061141,16.17599 33.714869,18.77969 6.654092,2.60368 17.854582,7.56048 24.889792,11.01516 7.03538,3.45466 17.12962,7.78283 22.43165,9.61813 5.30185,1.83537 15.28354,5.59939 22.1812,8.36455 6.89797,2.76507 22.34016,7.87379 34.31623,11.35256 11.97608,3.4788 24.83479,7.8708 28.57487,9.76006 3.74026,1.88922 8.59351,3.08155 10.78502,2.64966 2.19137,-0.43359 11.30538,1.20715 20.25264,3.64237 8.94728,2.43521 17.48393,4.18937 18.97015,3.89819 1.4857,-0.29282 5.03211,1.1992 7.87956,3.31197 2.84749,2.11283 9.32015,3.7939 14.38334,3.73586 5.06318,-0.058 15.20084,1.65006 22.52818,3.79584 16.37077,4.79399 32.00513,0.79317 50.6943,-12.9727 6.76277,-4.98119 14.27975,-9.46375 16.70469,-9.96132 2.42553,-0.49463 8.11243,-3.79951 12.63868,-7.33768 9.86036,-7.70759 23.7434,-12.87638 48.86474,-18.19283 20.93074,-4.42971 39.69754,-1.51812 48.60403,7.54054 5.07128,5.15728 13.81103,6.67223 50.1136,8.68624 45.27701,2.51192 47.38446,2.40109 58.48761,-3.07573 5.75096,-2.83686 13.6568,-5.79638 17.56847,-6.57673 12.83755,-2.56103 37.70329,6.9205 61.30395,23.37587 21.23179,14.80376 23.00946,16.75206 35.66254,39.08597 9.3177,16.44702 15.22699,24.27553 19.67824,26.06958 7.11418,2.86732 11.25867,8.5634 20.72151,28.47929 5.48387,11.54174 9.12475,15.34254 23.71494,24.75616 15.58814,10.0576 21.65285,12.87557 42.44982,19.72476 17.38514,5.72528 50.15947,-3.39806 64.94115,-18.07785 7.82772,-7.7736 11.50308,-9.75606 18.23083,-9.83318 9.79135,-0.11231 25.67658,10.0199 29.92839,19.08973 1.61801,3.45158 5.44415,7.77097 8.5024,9.59869 3.05831,1.82752 5.85048,4.77632 6.20496,6.55291 1.23137,6.17259 11.85582,6.98904 27.63892,2.12391 14.13345,-4.35657 15.48145,-4.33341 19.26685,0.33195 5.2488,6.46816 8.7848,7.83413 16.4464,6.35405 3.9175,-0.75526 11.5958,2.05873 20.7075,7.59289 l 14.4817,8.79556 31.5982,-4.38603 c 29.2858,-4.0651 32.358,-4.0146 41.9773,0.68791 5.7084,2.79061 10.2195,6.44267 10.0244,8.11584 -0.1951,1.673 -4.1133,5.85587 -8.7068,9.29493 -11.1936,8.38073 -8.868,14.81306 4.784,13.23222 8.7502,-1.01299 10.5133,-2.34427 15.7461,-11.88856 3.8513,-7.02553 9.4467,-12.63222 16.155,-16.18832 23.8141,-12.62398 42.1855,-8.8722 64.4856,13.16963 8.3017,8.20563 19.6334,17.4755 25.1811,20.59949 5.5475,3.12401 18.5492,10.33803 28.8921,16.03098 19.7315,10.86062 25.4425,17.48116 28.5598,33.10627 1.3913,6.97422 0.4147,11.9489 -3.7195,18.94922 l -5.6064,9.49219 -42.7022,8.62674 c -23.4858,4.74538 -44.0907,9.14343 -45.7877,9.7755 -1.6975,0.63192 -7.3466,7.01778 -12.5537,14.19077 -10.4001,14.32498 -27.2677,30.18423 -33.4071,31.40894 -2.1557,0.43013 -6.6555,-1.55674 -9.9991,-4.41544 -3.3433,-2.85865 -7.936,-4.82715 -10.2051,-4.37439 -5.1284,1.02302 -16.9714,19.59114 -20.6124,32.31716 -1.4979,5.23476 -5.5721,13.54759 -9.0541,18.47288 l -6.3313,8.95561 -12.0015,-9.14421 c -11.6544,-8.88016 -12.0451,-9.56165 -13.528,-23.58339 l -1.5264,-14.43918 -7.36,1.46835 c -4.0481,0.80779 -7.1691,2.42758 -6.9351,3.59978 0.7367,3.69235 -19.1588,32.21744 -26.5401,38.05262 -3.8842,3.07053 -10.8367,10.72512 -15.4499,17.00989 -13.056,17.78705 -23.0132,20.49951 -57.97704,15.79335 -14.97944,-2.01615 -19.902,-3.9539 -26.20553,-10.31513 -7.57143,-7.64085 -17.64518,-9.16069 -19.9379,-3.00815 -0.53023,1.4233 -4.89556,2.72963 -9.70079,2.90261 -7.98617,0.28805 -8.76263,0.95297 -9.03898,7.74151 -0.16625,4.0843 -1.65219,10.58016 -3.30262,14.43498 -1.64995,3.85509 -3.51507,11.40199 -4.14451,16.77145 -1.58187,13.4916 -17.95515,32.50234 -34.05553,39.54034 -6.7629,2.9562 -22.65865,8.3771 -35.32423,12.0458 -12.66541,3.6692 -24.56064,7.6645 -26.4341,8.8784 -1.87295,1.214 -9.71666,1.3427 -17.42999,0.2862 z"
       style="fill:#009ee0;fill-opacity:1;stroke:#ffffff;stroke-width:5.58150053;stroke-linecap:square;stroke-linejoin:miter;stroke-miterlimit:4;stroke-dasharray:none" />
    <path
       id="ellipse4260"
       stroke-miterlimit="4"
       style="fill:none;stroke:#ffffff;stroke-width:100.5;stroke-miterlimit:4;stroke-dasharray:none;stroke-opacity:1"
       sodipodi:type="arc"
       sodipodi:cx="786.15302"
       sodipodi:cy="319.88574"
       sodipodi:rx="446.08142"
       sodipodi:ry="450.4537"
       sodipodi:start="0"
       sodipodi:end="3.1415927"
       sodipodi:open="true"
       d="M 1232.2344,319.88574 A 446.08142,450.4537 0 0 1 1009.1937,709.9901 446.08142,450.4537 0 0 1 563.11229,709.99009 446.08142,450.4537 0 0 1 340.07159,319.88572" />
    <ellipse
       style="fill:none;stroke:#de2c68;stroke-width:89.83679199;stroke-miterlimit:4;stroke-dasharray:none;stroke-opacity:1"
       cx="786.15302"
       cy="319.88574"
       stroke-miterlimit="4"
       id="ellipse5485"
       rx="446.08142"
       ry="450.4537" />
    <g
       id="g4252"
       transform="translate(0,138)">
      <polygon
         inkscape:transform-center-y="6.0807202"
         inkscape:transform-center-x="-735.76717"
         id="polygon5366"
         transform="matrix(-7.2633158,0,0,7.5170891,706.74163,-127.7118)"
         points="81,59 75,53 88,53 88,47 75,47 81,41 73,41 64,50 73,59 "
         style="fill:#ffcc33;fill-opacity:1" />
      <polygon
         style="fill:#ffcc33;fill-opacity:1"
         points="81,41 73,41 64,50 73,59 81,59 75,53 88,53 88,47 75,47 "
         transform="matrix(14.898881,0,0,15.419433,-240.62554,-520.72469)"
         id="polygon5867"
         inkscape:transform-center-x="1509.2428"
         inkscape:transform-center-y="12.473066" />
    </g>
    <path
       d="m 1457.5272,430.09657 q 7.4092,10.72394 16.0533,15.13981 8.8205,4.41569 18.523,4.41569 10.0554,0 17.9938,-4.20544 8.1149,-4.41587 13.76,-13.45767 5.6451,-9.25206 8.6441,-23.34047 2.9989,-14.29882 2.9989,-34.06475 0,-35.53648 -9.8789,-51.30721 -9.879,-15.98097 -28.402,-15.98097 -12.5251,0 -21.8748,6.93917 -9.3497,6.72875 -17.8174,19.13501 l 0,96.72683 z m 0,-133.31471 q 10.9374,-13.66792 24.1681,-21.65832 13.4072,-8.20082 30.5189,-8.20082 15.7005,0 28.2256,7.35966 12.7015,7.35966 21.522,21.23782 8.9969,13.66792 13.76,33.2236 4.763,19.55551 4.763,43.94755 0,26.28443 -5.4687,47.7325 -5.4687,21.44807 -15.7004,36.79813 -10.0554,15.13999 -24.3446,23.55088 -14.2892,8.41107 -31.7538,8.41107 -8.4676,0 -15.3476,-2.10281 -6.88,-1.89239 -12.7015,-5.4671 -5.8215,-3.57471 -10.761,-8.62131 -4.7631,-5.25685 -9.1733,-11.56511 l -1.9405,14.5089 q -1.0585,5.46727 -3.7046,7.78033 -2.4698,2.31305 -6.88,2.31305 l -28.7548,0 0,-312.46952 43.5732,0 0,123.2215 z"
       style="font-style:normal;font-variant:normal;font-weight:bold;font-stretch:normal;font-size:200px;line-height:100%;font-family:Lato;-inkscape-font-specification:'Lato Bold';letter-spacing:0px;word-spacing:0px;fill:#009ee0;fill-opacity:1;stroke:none;stroke-width:1px;stroke-linecap:butt;stroke-linejoin:miter;stroke-opacity:1"
       id="path3419"
       inkscape:connector-curvature="0" />
    <path
       d="m 1694.5724,266.92272 q 20.1107,0 36.5168,7.78015 16.5825,7.78033 28.2256,22.07899 11.8195,14.29865 18.1702,34.90574 6.3508,20.60691 6.3508,46.05035 0,25.65352 -6.3508,46.26061 -6.3507,20.60691 -18.1702,35.11598 -11.6431,14.50908 -28.2256,22.28923 -16.4061,7.78016 -36.5168,7.78016 -20.2871,0 -36.8697,-7.78016 -16.5825,-7.78015 -28.4019,-22.28923 -11.6431,-14.50907 -18.1703,-35.11598 -6.3507,-20.60709 -6.3507,-46.26061 0,-25.44344 6.3507,-46.05035 6.5272,-20.60709 18.1703,-34.90574 11.8194,-14.29866 28.4019,-22.07899 16.5826,-7.78015 36.8697,-7.78015 z m 0,182.30886 q 22.5804,0 33.3414,-18.08361 10.9375,-18.08378 10.9375,-52.98952 0,-34.90575 -10.9375,-53.1996 -10.761,-18.29403 -33.3414,-18.29403 -22.9333,0 -34.0471,18.50427 -10.9374,18.29386 -10.9374,52.98936 0,34.69549 10.9374,52.98952 11.1138,18.08361 34.0471,18.08361 z"
       style="font-style:normal;font-variant:normal;font-weight:bold;font-stretch:normal;font-size:200px;line-height:100%;font-family:Lato;-inkscape-font-specification:'Lato Bold';letter-spacing:0px;word-spacing:0px;fill:#009ee0;fill-opacity:1;stroke:none;stroke-width:1px;stroke-linecap:butt;stroke-linejoin:miter;stroke-opacity:1"
       id="path3421"
       inkscape:connector-curvature="0" />
    <path
       d="m 1930.6859,325.37934 q -7.4092,-10.72412 -16.2297,-15.13981 -8.6441,-4.41587 -18.6994,-4.41587 -9.879,0 -17.8174,4.41587 -7.9385,4.41569 -13.5836,13.45767 -5.6451,8.83156 -8.6441,22.70972 -2.9989,13.66792 -2.9989,32.38244 0,18.92477 2.4697,32.17202 2.6461,13.03718 7.4092,21.44824 4.7631,8.20065 11.6431,11.9856 6.8799,3.57471 15.3476,3.57471 13.5836,0 23.1097,-6.72875 9.5261,-6.72892 17.9938,-19.13519 l 0,-96.72665 z m 43.5732,-151.81898 0,312.46952 -26.6379,0 q -8.644,0 -10.9374,-9.46247 l -3.7046,-20.81733 q -10.9374,14.92957 -25.2266,24.18179 -14.1128,9.25206 -32.9886,9.25206 -14.8184,0 -27.1671,-7.35966 -12.3487,-7.35967 -21.3456,-21.23783 -8.8205,-14.08841 -13.76,-34.69549 -4.7631,-20.60692 -4.7631,-47.10159 0,-23.97155 5.4688,-44.57846 5.4687,-20.60708 15.7004,-35.7469 10.2318,-15.13981 24.521,-23.55071 14.2892,-8.62131 32.1066,-8.62131 15.1712,0 25.9322,5.67734 10.761,5.67752 19.2287,15.35007 l 0,-113.75903 43.5732,0 z"
       style="font-style:normal;font-variant:normal;font-weight:bold;font-stretch:normal;font-size:200px;line-height:100%;font-family:Lato;-inkscape-font-specification:'Lato Bold';letter-spacing:0px;word-spacing:0px;fill:#009ee0;fill-opacity:1;stroke:none;stroke-width:1px;stroke-linecap:butt;stroke-linejoin:miter;stroke-opacity:1"
       id="path3423"
       inkscape:connector-curvature="0" />
    <path
       d="m 2134.2132,353.34591 q 0,-10.09321 -2.4697,-18.92476 -2.2934,-9.04181 -7.0564,-15.77056 -4.7631,-6.72892 -12.1723,-10.51387 -7.2328,-3.9952 -16.9353,-3.9952 -18.8759,0 -29.8133,12.82676 -10.761,12.82675 -13.76,36.37763 l 82.207,0 z m -83.089,31.33104 q 1.0584,16.61188 4.9395,28.80773 3.881,11.98577 10.2317,19.97617 6.3508,7.78033 14.9949,11.77553 8.8204,3.78495 19.405,3.78495 10.5846,0 18.1703,-2.94379 7.762,-2.94397 13.4071,-6.51868 5.8215,-3.5747 10.0554,-6.5185 4.4102,-2.94379 8.4676,-2.94379 5.4687,0 8.1149,4.83635 l 12.5251,18.92477 q -7.2328,10.09321 -16.2297,17.03221 -8.9969,6.72892 -18.8759,10.93437 -9.7025,3.9952 -19.9343,5.67751 -10.0554,1.68215 -19.5815,1.68215 -18.8758,0 -35.1055,-7.35966 -16.2297,-7.56991 -28.2256,-22.07899 -11.9959,-14.71915 -18.8759,-36.16722 -6.8799,-21.65849 -6.8799,-50.04573 0,-22.07881 5.9979,-41.42424 5.9979,-19.55551 17.1118,-33.85434 11.2902,-14.5089 27.3435,-22.91996 16.2297,-8.41107 36.5168,-8.41107 17.1118,0 31.5774,6.5185 14.4656,6.51868 24.8737,19.13519 10.4082,12.40627 16.2297,30.70012 5.998,18.08378 5.998,41.42425 0,11.77552 -2.1169,15.98097 -2.1169,3.9952 -8.1149,3.9952 l -112.0202,0 z"
       style="font-style:normal;font-variant:normal;font-weight:bold;font-stretch:normal;font-size:200px;line-height:100%;font-family:Lato;-inkscape-font-specification:'Lato Bold';letter-spacing:0px;word-spacing:0px;fill:#009ee0;fill-opacity:1;stroke:none;stroke-width:1px;stroke-linecap:butt;stroke-linejoin:miter;stroke-opacity:1"
       id="path3425"
       inkscape:connector-curvature="0" />
    <path
       d="m 2246.4815,296.78186 q 5.4687,-6.51851 11.4667,-11.98578 6.1743,-5.67734 12.8779,-9.46229 6.88,-3.9952 14.642,-6.09801 7.762,-2.31306 16.9353,-2.31306 14.8185,0 26.2851,6.09801 11.4666,5.88776 19.0523,16.82196 7.762,10.72412 11.643,25.86393 4.0574,14.92957 4.0574,33.01336 l 0,137.3099 -43.5732,0 0,-137.3099 q 0,-19.76593 -7.5856,-30.49005 -7.5856,-10.93437 -23.1097,-10.93437 -11.2902,0 -21.1692,6.09801 -9.8789,6.09801 -18.6994,16.61188 l 0,156.02443 -43.5732,0 0,-215.7427 26.6378,0 q 8.4677,0 11.1139,9.4623 l 2.9989,17.03238 z"
       style="font-style:normal;font-variant:normal;font-weight:bold;font-stretch:normal;font-size:200px;line-height:100%;font-family:Lato;-inkscape-font-specification:'Lato Bold';letter-spacing:0px;word-spacing:0px;fill:#009ee0;fill-opacity:1;stroke:none;stroke-width:1px;stroke-linecap:butt;stroke-linejoin:miter;stroke-opacity:1"
       id="path3427"
       inkscape:connector-curvature="0" />
    <path
       d="m 2515.3135,312.34216 q -1.7641,3.36446 -3.7046,4.83636 -1.9405,1.26165 -4.9394,1.26165 -3.1754,0 -6.88,-2.10263 -3.5282,-2.10281 -8.2913,-4.62612 -4.763,-2.73354 -10.9374,-4.83635 -5.9979,-2.10281 -14.2892,-2.10281 -12.8779,0 -20.2871,6.51867 -7.2328,6.5185 -7.2328,17.03221 0,6.93916 3.7046,11.77552 3.881,4.62594 10.0553,8.20065 6.3508,3.57471 14.2892,6.5185 7.9385,2.73372 16.0533,6.09801 8.2913,3.36446 16.2297,7.78033 7.9385,4.20544 14.1128,10.93419 6.3508,6.51868 10.0554,15.77073 3.881,9.25205 3.881,22.28923 0,15.56031 -4.7631,28.80773 -4.5866,13.03701 -13.7599,22.70972 -9.1733,9.46247 -22.7569,14.92957 -13.4071,5.25685 -31.0481,5.25685 -9.3497,0 -18.3466,-2.10263 -8.8205,-1.89257 -17.1118,-5.46727 -8.1149,-3.57471 -15.1712,-8.41107 -6.88,-4.83619 -12.1723,-10.5137 l 10.0553,-19.76593 q 1.9405,-3.57471 4.5867,-5.4671 2.6461,-1.89256 6.7036,-1.89256 4.0574,0 7.5856,2.73355 3.7046,2.73372 8.4677,5.88776 4.763,3.15422 11.1138,5.88776 6.5271,2.73355 16.4061,2.73355 7.762,0 13.2307,-2.10281 5.6451,-2.31288 9.1733,-5.88759 3.7046,-3.5747 5.2923,-8.20082 1.7641,-4.83635 1.7641,-9.88296 0,-7.56991 -3.881,-12.40626 -3.7046,-4.83636 -10.0553,-8.4109 -6.1744,-3.57471 -14.2892,-6.30843 -7.9385,-2.94379 -16.4062,-6.30825 -8.2912,-3.36429 -16.4061,-7.78016 -7.9384,-4.62594 -14.2892,-11.5651 -6.1743,-6.93917 -10.0553,-17.03238 -3.7046,-10.09321 -3.7046,-24.39187 0,-13.24742 4.4102,-25.23302 4.4103,-11.98578 12.8779,-20.81733 8.6441,-9.04181 21.3456,-14.29866 12.8779,-5.46727 29.6369,-5.46727 18.6994,0 34.0471,7.35966 15.3476,7.35966 25.5794,19.34543 l -9.879,18.71435 z"
       style="font-style:normal;font-variant:normal;font-weight:bold;font-stretch:normal;font-size:200px;line-height:100%;font-family:Lato;-inkscape-font-specification:'Lato Bold';letter-spacing:0px;word-spacing:0px;fill:#009ee0;fill-opacity:1;stroke:none;stroke-width:1px;stroke-linecap:butt;stroke-linejoin:miter;stroke-opacity:1"
       id="path3429"
       inkscape:connector-curvature="0" />
    <path
       d="m 2676.5356,353.34591 q 0,-10.09321 -2.4698,-18.92476 -2.2933,-9.04181 -7.0563,-15.77056 -4.7631,-6.72892 -12.1723,-10.51387 -7.2328,-3.9952 -16.9354,-3.9952 -18.8758,0 -29.8132,12.82676 -10.761,12.82675 -13.76,36.37763 l 82.207,0 z m -83.089,31.33104 q 1.0584,16.61188 4.9394,28.80773 3.8811,11.98577 10.2318,19.97617 6.3508,7.78033 14.9948,11.77553 8.8205,3.78495 19.4051,3.78495 10.5846,0 18.1702,-2.94379 7.7621,-2.94397 13.4072,-6.51868 5.8215,-3.5747 10.0553,-6.5185 4.4103,-2.94379 8.4677,-2.94379 5.4687,0 8.1149,4.83635 l 12.5251,18.92477 q -7.2328,10.09321 -16.2297,17.03221 -8.9969,6.72892 -18.8759,10.93437 -9.7025,3.9952 -19.9343,5.67751 -10.0554,1.68215 -19.5815,1.68215 -18.8758,0 -35.1055,-7.35966 -16.2298,-7.56991 -28.2256,-22.07899 -11.9959,-14.71915 -18.8759,-36.16722 -6.88,-21.65849 -6.88,-50.04573 0,-22.07881 5.998,-41.42424 5.9979,-19.55551 17.1117,-33.85434 11.2903,-14.5089 27.3436,-22.91996 16.2297,-8.41107 36.5168,-8.41107 17.1117,0 31.5773,6.5185 14.4657,6.51868 24.8738,19.13519 10.4082,12.40627 16.2297,30.70012 5.998,18.08378 5.998,41.42425 0,11.77552 -2.117,15.98097 -2.1169,3.9952 -8.1148,3.9952 l -112.0202,0 z"
       style="font-style:normal;font-variant:normal;font-weight:bold;font-stretch:normal;font-size:200px;line-height:100%;font-family:Lato;-inkscape-font-specification:'Lato Bold';letter-spacing:0px;word-spacing:0px;fill:#009ee0;fill-opacity:1;stroke:none;stroke-width:1px;stroke-linecap:butt;stroke-linejoin:miter;stroke-opacity:1"
       id="path3431"
       inkscape:connector-curvature="0" />
    <path
       d="m 2864.6601,353.34591 q 0,-10.09321 -2.4697,-18.92476 -2.2933,-9.04181 -7.0564,-15.77056 -4.7631,-6.72892 -12.1723,-10.51387 -7.2328,-3.9952 -16.9353,-3.9952 -18.8759,0 -29.8133,12.82676 -10.761,12.82675 -13.76,36.37763 l 82.207,0 z m -83.089,31.33104 q 1.0585,16.61188 4.9395,28.80773 3.881,11.98577 10.2317,19.97617 6.3508,7.78033 14.9949,11.77553 8.8205,3.78495 19.4051,3.78495 10.5845,0 18.1702,-2.94379 7.762,-2.94397 13.4071,-6.51868 5.8215,-3.5747 10.0554,-6.5185 4.4102,-2.94379 8.4676,-2.94379 5.4687,0 8.1149,4.83635 l 12.5251,18.92477 q -7.2328,10.09321 -16.2297,17.03221 -8.9969,6.72892 -18.8759,10.93437 -9.7025,3.9952 -19.9343,5.67751 -10.0553,1.68215 -19.5815,1.68215 -18.8758,0 -35.1055,-7.35966 -16.2297,-7.56991 -28.2256,-22.07899 -11.9959,-14.71915 -18.8758,-36.16722 -6.88,-21.65849 -6.88,-50.04573 0,-22.07881 5.9979,-41.42424 5.9979,-19.55551 17.1118,-33.85434 11.2902,-14.5089 27.3435,-22.91996 16.2297,-8.41107 36.5168,-8.41107 17.1118,0 31.5774,6.5185 14.4656,6.51868 24.8738,19.13519 10.4081,12.40627 16.2297,30.70012 5.9979,18.08378 5.9979,41.42425 0,11.77552 -2.1169,15.98097 -2.1169,3.9952 -8.1149,3.9952 l -112.0202,0 z"
       style="font-style:normal;font-variant:normal;font-weight:bold;font-stretch:normal;font-size:200px;line-height:100%;font-family:Lato;-inkscape-font-specification:'Lato Bold';letter-spacing:0px;word-spacing:0px;fill:#009ee0;fill-opacity:1;stroke:none;stroke-width:1px;stroke-linecap:butt;stroke-linejoin:miter;stroke-opacity:1"
       id="path3433"
       inkscape:connector-curvature="0" />
    <path
       d="m 2929.827,457.4324 q 0,-6.51868 1.9405,-12.40627 2.1169,-5.88776 5.6451,-10.09321 3.5282,-4.20562 8.4677,-6.72892 4.9395,-2.5233 10.5846,-2.5233 5.6451,0 10.4082,2.5233 4.9394,2.5233 8.4676,6.72892 3.7046,4.20545 5.8216,10.09321 2.1169,5.88759 2.1169,12.40627 0,6.72875 -2.1169,12.61651 -2.117,5.67735 -5.8216,9.88296 -3.5282,4.20545 -8.4676,6.51851 -4.7631,2.5233 -10.4082,2.5233 -5.6451,0 -10.5846,-2.5233 -4.9395,-2.31306 -8.4677,-6.51851 -3.5282,-4.20561 -5.6451,-9.88296 -1.9405,-5.88776 -1.9405,-12.61651 z"
       style="font-style:normal;font-variant:normal;font-weight:bold;font-stretch:normal;font-size:200px;line-height:100%;font-family:Lato;-inkscape-font-specification:'Lato Bold';text-align:start;letter-spacing:0px;word-spacing:0px;writing-mode:lr-tb;text-anchor:start;fill:#000000;fill-opacity:1;stroke:none;stroke-width:1px;stroke-linecap:butt;stroke-linejoin:miter;stroke-opacity:1"
       id="path3435"
       inkscape:connector-curvature="0" />
    <path
       d="m 3032.9496,486.02988 0,-176.63151 -15.7005,-2.9438 q -5.1159,-1.26165 -8.2913,-4.20562 -2.9989,-3.15404 -2.9989,-8.83155 l 0,-21.23783 26.9907,0 0,-15.9808 q 0,-18.50427 4.5866,-33.2236 4.7631,-14.71932 13.4072,-25.02277 8.8205,-10.30346 21.3456,-15.77073 12.5251,-5.4671 28.2255,-5.4671 12.5251,0 23.2861,3.9952 l -0.8821,26.07418 q -0.1764,2.9438 -1.4113,4.83636 -1.2348,1.68215 -3.3517,2.73355 -1.9405,0.84116 -4.5867,1.26165 -2.6461,0.21025 -5.6451,0.21025 -7.762,0 -13.9363,2.10281 -5.998,1.89239 -10.2318,6.93899 -4.2338,4.83636 -6.5272,13.03718 -2.1169,7.9904 -2.1169,19.97617 l 0,14.29866 47.1014,0 0,37.00855 -45.6901,0 0,176.84176 -43.5732,0 z"
       style="font-style:normal;font-variant:normal;font-weight:bold;font-stretch:normal;font-size:200px;line-height:100%;font-family:Lato;-inkscape-font-specification:'Lato Bold';letter-spacing:0px;word-spacing:0px;fill:#de2c68;fill-opacity:1;stroke:none;stroke-width:1px;stroke-linecap:butt;stroke-linejoin:miter;stroke-opacity:1"
       id="path3437"
       inkscape:connector-curvature="0" />
    <path
       d="m 3188.1461,307.71622 q 8.4676,-19.34543 20.1107,-30.27963 11.643,-11.14461 27.5199,-11.14461 12.5251,0 20.1107,6.5185 l -2.8225,38.90094 q -0.8821,3.78496 -2.6462,5.4671 -1.5877,1.47207 -4.4102,1.47207 -2.6462,0 -7.9385,-1.0514 -5.1159,-1.05141 -10.0553,-1.05141 -7.2328,0 -12.8779,2.52331 -5.6451,2.5233 -10.2318,7.35966 -4.4103,4.62594 -7.9384,11.35486 -3.3518,6.72875 -6.3508,15.35006 l 0,132.89421 -43.5732,0 0,-215.7427 25.5794,0 q 6.7036,0 9.3497,2.9438 2.6462,2.73354 3.5282,10.09321 l 2.6462,24.39203 z"
       style="font-style:normal;font-variant:normal;font-weight:bold;font-stretch:normal;font-size:200px;line-height:100%;font-family:Lato;-inkscape-font-specification:'Lato Bold';letter-spacing:0px;word-spacing:0px;fill:#de2c68;fill-opacity:1;stroke:none;stroke-width:1px;stroke-linecap:butt;stroke-linejoin:miter;stroke-opacity:1"
       id="path3439"
       inkscape:connector-curvature="0" />
    <path
       d="m 3390.444,353.34591 q 0,-10.09321 -2.4697,-18.92476 -2.2934,-9.04181 -7.0564,-15.77056 -4.7631,-6.72892 -12.1723,-10.51387 -7.2328,-3.9952 -16.9353,-3.9952 -18.8759,0 -29.8133,12.82676 -10.761,12.82675 -13.76,36.37763 l 82.207,0 z m -83.089,31.33104 q 1.0585,16.61188 4.9395,28.80773 3.881,11.98577 10.2317,19.97617 6.3508,7.78033 14.9949,11.77553 8.8205,3.78495 19.405,3.78495 10.5846,0 18.1703,-2.94379 7.762,-2.94397 13.4071,-6.51868 5.8215,-3.5747 10.0554,-6.5185 4.4102,-2.94379 8.4676,-2.94379 5.4687,0 8.1149,4.83635 l 12.5251,18.92477 q -7.2328,10.09321 -16.2297,17.03221 -8.9969,6.72892 -18.8759,10.93437 -9.7025,3.9952 -19.9343,5.67751 -10.0553,1.68215 -19.5815,1.68215 -18.8758,0 -35.1055,-7.35966 -16.2297,-7.56991 -28.2256,-22.07899 -11.9959,-14.71915 -18.8758,-36.16722 -6.88,-21.65849 -6.88,-50.04573 0,-22.07881 5.9979,-41.42424 5.998,-19.55551 17.1118,-33.85434 11.2902,-14.5089 27.3435,-22.91996 16.2297,-8.41107 36.5168,-8.41107 17.1118,0 31.5774,6.5185 14.4656,6.51868 24.8738,19.13519 10.4081,12.40627 16.2297,30.70012 5.9979,18.08378 5.9979,41.42425 0,11.77552 -2.1169,15.98097 -2.1169,3.9952 -8.1149,3.9952 l -112.0202,0 z"
       style="font-style:normal;font-variant:normal;font-weight:bold;font-stretch:normal;font-size:200px;line-height:100%;font-family:Lato;-inkscape-font-specification:'Lato Bold';letter-spacing:0px;word-spacing:0px;fill:#de2c68;fill-opacity:1;stroke:none;stroke-width:1px;stroke-linecap:butt;stroke-linejoin:miter;stroke-opacity:1"
       id="path3441"
       inkscape:connector-curvature="0" />
    <path
       d="m 3507.1227,270.28718 0,215.7427 -43.7496,0 0,-215.7427 43.7496,0 z m 5.9979,-62.87231 q 0,6.72874 -2.2933,12.61651 -2.2933,5.88759 -6.1743,10.30345 -3.7046,4.4157 -8.8205,7.14942 -5.1159,2.5233 -10.9374,2.5233 -5.6451,0 -10.761,-2.5233 -4.9395,-2.73372 -8.6441,-7.14942 -3.7046,-4.41586 -5.9979,-10.30345 -2.117,-5.88777 -2.117,-12.61651 0,-6.93917 2.117,-13.03718 2.2933,-6.09801 5.9979,-10.5137 3.7046,-4.41587 8.6441,-6.93917 5.1159,-2.73355 10.761,-2.73355 5.8215,0 10.9374,2.73355 5.1159,2.5233 8.8205,6.93917 3.881,4.41569 6.1743,10.5137 2.2933,6.09801 2.2933,13.03718 z"
       style="font-style:normal;font-variant:normal;font-weight:bold;font-stretch:normal;font-size:200px;line-height:100%;font-family:Lato;-inkscape-font-specification:'Lato Bold';letter-spacing:0px;word-spacing:0px;fill:#de2c68;fill-opacity:1;stroke:none;stroke-width:1px;stroke-linecap:butt;stroke-linejoin:miter;stroke-opacity:1"
       id="path3443"
       inkscape:connector-curvature="0" />
    <path
       d="m 3564.2463,486.02988 0,-176.63151 -15.7005,-2.9438 q -5.1158,-1.26165 -8.2912,-4.20562 -2.999,-3.15404 -2.999,-8.83155 l 0,-21.23783 26.9907,0 0,-15.9808 q 0,-18.50427 4.5867,-33.2236 4.7631,-14.71932 13.4071,-25.02277 8.8205,-10.30346 21.3456,-15.77073 12.5251,-5.4671 28.2256,-5.4671 12.5251,0 23.2861,3.9952 l -0.8821,26.07418 q -0.1764,2.9438 -1.4112,4.83636 -1.2349,1.68215 -3.3518,2.73355 -1.9406,0.84116 -4.5867,1.26165 -2.6461,0.21025 -5.6451,0.21025 -7.762,0 -13.9364,2.10281 -5.9979,1.89239 -10.2317,6.93899 -4.2339,4.83636 -6.5272,13.03718 -2.1169,7.9904 -2.1169,19.97617 l 0,14.29866 47.1014,0 0,37.00855 -45.6901,0 0,176.84176 -43.5733,0 z"
       style="font-style:normal;font-variant:normal;font-weight:bold;font-stretch:normal;font-size:200px;line-height:100%;font-family:Lato;-inkscape-font-specification:'Lato Bold';letter-spacing:0px;word-spacing:0px;fill:#de2c68;fill-opacity:1;stroke:none;stroke-width:1px;stroke-linecap:butt;stroke-linejoin:miter;stroke-opacity:1"
       id="path3445"
       inkscape:connector-curvature="0" />
    <path
       d="m 3834.2857,270.28718 0,215.7427 -26.6379,0 q -8.6441,0 -10.9374,-9.46247 l -2.999,-17.24262 q -11.1138,13.45767 -24.521,21.86874 -13.4071,8.20064 -31.5773,8.20064 -14.8184,0 -26.2851,-5.88776 -11.2902,-6.09784 -19.0523,-17.03221 -7.762,-10.93436 -11.8194,-25.86393 -3.881,-15.13982 -3.881,-33.22343 l 0,-137.09966 43.5732,0 0,137.09966 q 0,19.76576 7.5856,30.70013 7.7621,10.72412 23.1097,10.72412 11.2902,0 21.1692,-5.88777 9.8789,-6.09801 18.6994,-16.61171 l 0,-156.02443 43.5733,0 z"
       style="font-style:normal;font-variant:normal;font-weight:bold;font-stretch:normal;font-size:200px;line-height:100%;font-family:Lato;-inkscape-font-specification:'Lato Bold';letter-spacing:0px;word-spacing:0px;fill:#de2c68;fill-opacity:1;stroke:none;stroke-width:1px;stroke-linecap:butt;stroke-linejoin:miter;stroke-opacity:1"
       id="path3447"
       inkscape:connector-curvature="0" />
    <path
       d="m 3918.2401,296.78186 q 5.4687,-6.51851 11.4667,-11.98578 6.1743,-5.67734 12.8779,-9.46229 6.88,-3.9952 14.642,-6.09801 7.762,-2.31306 16.9353,-2.31306 14.8185,0 26.2851,6.09801 11.4667,5.88776 19.0523,16.82196 7.762,10.72412 11.643,25.86393 4.0574,14.92957 4.0574,33.01336 l 0,137.3099 -43.5732,0 0,-137.3099 q 0,-19.76593 -7.5856,-30.49005 -7.5856,-10.93437 -23.1097,-10.93437 -11.2902,0 -21.1692,6.09801 -9.8789,6.09801 -18.6994,16.61188 l 0,156.02443 -43.5732,0 0,-215.7427 26.6379,0 q 8.4676,0 11.1138,9.4623 l 2.9989,17.03238 z"
       style="font-style:normal;font-variant:normal;font-weight:bold;font-stretch:normal;font-size:200px;line-height:100%;font-family:Lato;-inkscape-font-specification:'Lato Bold';letter-spacing:0px;word-spacing:0px;fill:#de2c68;fill-opacity:1;stroke:none;stroke-width:1px;stroke-linecap:butt;stroke-linejoin:miter;stroke-opacity:1"
       id="path3449"
       inkscape:connector-curvature="0" />
    <path
       d="m 4120.213,173.56036 0,178.94457 8.1148,0 q 4.4103,0 6.88,-1.26165 2.6462,-1.47207 5.2923,-5.67752 l 44.9845,-66.23677 q 2.8226,-4.4157 6.1744,-6.72875 3.5282,-2.31306 8.9969,-2.31306 l 39.8686,0 -56.2748,80.11494 q -5.9979,9.46247 -13.0543,14.50907 3.7046,3.15405 6.5272,7.35949 2.9989,4.20562 5.6451,9.04198 l 60.3322,104.71722 -39.3394,0 q -5.1159,0 -8.8205,-1.89256 -3.7046,-2.10281 -6.1744,-7.35966 l -46.2193,-81.79708 q -2.4698,-4.83636 -5.1159,-6.30826 -2.6462,-1.47207 -7.9385,-1.47207 l -9.8789,0 0,98.82963 -43.5732,0 0,-312.46952 43.5732,0 z"
       style="font-style:normal;font-variant:normal;font-weight:bold;font-stretch:normal;font-size:200px;line-height:100%;font-family:Lato;-inkscape-font-specification:'Lato Bold';letter-spacing:0px;word-spacing:0px;fill:#de2c68;fill-opacity:1;stroke:none;stroke-width:1px;stroke-linecap:butt;stroke-linejoin:miter;stroke-opacity:1"
       id="path3451"
       inkscape:connector-curvature="0" />
    <path
       d="m 4259.1025,457.4324 q 0,-6.51868 1.9406,-12.40627 2.1169,-5.88776 5.6451,-10.09321 3.5282,-4.20562 8.4676,-6.72892 4.9395,-2.5233 10.5846,-2.5233 5.6451,0 10.4082,2.5233 4.9396,2.5233 8.4676,6.72892 3.7047,4.20545 5.8217,10.09321 2.1169,5.88759 2.1169,12.40627 0,6.72875 -2.1169,12.61651 -2.117,5.67735 -5.8217,9.88296 -3.528,4.20545 -8.4676,6.51851 -4.7631,2.5233 -10.4082,2.5233 -5.6451,0 -10.5846,-2.5233 -4.9394,-2.31306 -8.4676,-6.51851 -3.5282,-4.20561 -5.6451,-9.88296 -1.9406,-5.88776 -1.9406,-12.61651 z"
       style="font-style:normal;font-variant:normal;font-weight:bold;font-stretch:normal;font-size:200px;line-height:100%;font-family:Lato;-inkscape-font-specification:'Lato Bold';text-align:start;letter-spacing:0px;word-spacing:0px;writing-mode:lr-tb;text-anchor:start;fill:#000000;fill-opacity:1;stroke:none;stroke-width:1px;stroke-linecap:butt;stroke-linejoin:miter;stroke-opacity:1"
       id="path3453"
       inkscape:connector-curvature="0" />
    <path
       d="m 4390.2744,296.78186 q 5.4686,-6.51851 11.4666,-11.98578 6.1743,-5.67734 12.8779,-9.46229 6.8801,-3.9952 14.642,-6.09801 7.7621,-2.31306 16.9354,-2.31306 14.8183,0 26.285,6.09801 11.4667,5.88776 19.0523,16.82196 7.7621,10.72412 11.6431,25.86393 4.0574,14.92957 4.0574,33.01336 l 0,137.3099 -43.5732,0 0,-137.3099 q 0,-19.76593 -7.5858,-30.49005 -7.5855,-10.93437 -23.1095,-10.93437 -11.2903,0 -21.1693,6.09801 -9.8788,6.09801 -18.6994,16.61188 l 0,156.02443 -43.5732,0 0,-215.7427 26.6378,0 q 8.4677,0 11.114,9.4623 l 2.9989,17.03238 z"
       style="font-style:normal;font-variant:normal;font-weight:bold;font-stretch:normal;font-size:200px;line-height:100%;font-family:Lato;-inkscape-font-specification:'Lato Bold';text-align:start;letter-spacing:0px;word-spacing:0px;writing-mode:lr-tb;text-anchor:start;fill:#000000;fill-opacity:1;stroke:none;stroke-width:1px;stroke-linecap:butt;stroke-linejoin:miter;stroke-opacity:1"
       id="path3455"
       inkscape:connector-curvature="0" />
    <path
       d="m 4665.2807,353.34591 q 0,-10.09321 -2.4697,-18.92476 -2.2934,-9.04181 -7.0564,-15.77056 -4.763,-6.72892 -12.1723,-10.51387 -7.2327,-3.9952 -16.9354,-3.9952 -18.8759,0 -29.8132,12.82676 -10.761,12.82675 -13.76,36.37763 l 82.207,0 z m -83.089,31.33104 q 1.0585,16.61188 4.9395,28.80773 3.8809,11.98577 10.2317,19.97617 6.3507,7.78033 14.9948,11.77553 8.8205,3.78495 19.4052,3.78495 10.5844,0 18.1702,-2.94379 7.7619,-2.94397 13.407,-6.51868 5.8217,-3.5747 10.0554,-6.5185 4.4103,-2.94379 8.4677,-2.94379 5.4686,0 8.1149,4.83635 l 12.5251,18.92477 q -7.2328,10.09321 -16.2298,17.03221 -8.9969,6.72892 -18.8757,10.93437 -9.7027,3.9952 -19.9344,5.67751 -10.0553,1.68215 -19.5815,1.68215 -18.8758,0 -35.1056,-7.35966 -16.2296,-7.56991 -28.2256,-22.07899 -11.9957,-14.71915 -18.8758,-36.16722 -6.88,-21.65849 -6.88,-50.04573 0,-22.07881 5.998,-41.42424 5.998,-19.55551 17.1118,-33.85434 11.2902,-14.5089 27.3435,-22.91996 16.2297,-8.41107 36.5168,-8.41107 17.1118,0 31.5773,6.5185 14.4657,6.51868 24.8738,19.13519 10.4082,12.40627 16.2298,30.70012 5.9978,18.08378 5.9978,41.42425 0,11.77552 -2.1169,15.98097 -2.1168,3.9952 -8.1148,3.9952 l -112.0202,0 z"
       style="font-style:normal;font-variant:normal;font-weight:bold;font-stretch:normal;font-size:200px;line-height:100%;font-family:Lato;-inkscape-font-specification:'Lato Bold';text-align:start;letter-spacing:0px;word-spacing:0px;writing-mode:lr-tb;text-anchor:start;fill:#000000;fill-opacity:1;stroke:none;stroke-width:1px;stroke-linecap:butt;stroke-linejoin:miter;stroke-opacity:1"
       id="path3457"
       inkscape:connector-curvature="0" />
    <path
       d="m 4795.0631,489.39417 q -23.6389,0 -36.3404,-15.77055 -12.5251,-15.98097 -12.5251,-43.94772 l 0,-120.48778 -18.5231,0 q -3.5282,0 -5.9979,-2.73355 -2.4698,-2.73355 -2.4698,-8.20082 l 0,-20.60691 29.1077,-5.67752 9.1734,-58.87711 q 0.8819,-4.20545 3.3517,-6.5185 2.4697,-2.31306 6.3508,-2.31306 l 22.5804,0 0,67.91892 48.3364,0 0,37.00855 -48.3364,0 0,116.91324 q 0,10.09321 4.0573,15.77056 4.2339,5.67752 11.4668,5.67752 4.0574,0 6.7035,-1.05141 2.8225,-1.26165 4.7631,-2.5233 2.117,-1.26165 3.7046,-2.31306 1.5878,-1.26165 3.1754,-1.26165 1.9404,0 3.1754,1.26165 1.2348,1.05141 2.646,3.36446 l 13.0544,25.23303 q -9.5261,9.4623 -21.8747,14.29865 -12.3488,4.83636 -25.5795,4.83636 z"
       style="font-style:normal;font-variant:normal;font-weight:bold;font-stretch:normal;font-size:200px;line-height:100%;font-family:Lato;-inkscape-font-specification:'Lato Bold';text-align:start;letter-spacing:0px;word-spacing:0px;writing-mode:lr-tb;text-anchor:start;fill:#000000;fill-opacity:1;stroke:none;stroke-width:1px;stroke-linecap:butt;stroke-linejoin:miter;stroke-opacity:1"
       id="path3459"
       inkscape:connector-curvature="0" />
    <path
       style="font-style:normal;font-variant:normal;font-weight:bold;font-stretch:normal;font-size:221.14256287px;line-height:125%;font-family:sans-serif;-inkscape-font-specification:'sans-serif, Bold';text-align:start;letter-spacing:0px;word-spacing:0px;writing-mode:lr-tb;text-anchor:start;fill:#000000;fill-opacity:1;stroke:none;stroke-width:1px;stroke-linecap:butt;stroke-linejoin:miter;stroke-opacity:1"
       d="m 1568.5647,748.58468 -62.1964,0 0,64.24796 -32.3939,0 0,-157.21854 102.3648,0 0,26.23908 -69.9709,0 0,40.6004 62.1964,0 0,26.1311 z"
       id="path4336" />
    <path
       style="font-style:normal;font-variant:normal;font-weight:bold;font-stretch:normal;font-size:221.14256287px;line-height:125%;font-family:sans-serif;-inkscape-font-specification:'sans-serif, Bold';text-align:start;letter-spacing:0px;word-spacing:0px;writing-mode:lr-tb;text-anchor:start;fill:#000000;fill-opacity:1;stroke:none;stroke-width:1px;stroke-linecap:butt;stroke-linejoin:miter;stroke-opacity:1"
       d="m 1656.3522,725.26105 q -6.3708,-0.86384 -11.2299,-0.86384 -17.7087,0 -23.2156,11.98576 l 0,76.44967 -31.2062,0 0,-116.83411 29.4785,0 0.8638,13.92939 q 9.3943,-16.08898 26.0231,-16.08898 5.1831,0 9.7182,1.40374 l -0.4319,30.01837 z"
       id="path4334" />
    <path
       style="font-style:normal;font-variant:normal;font-weight:bold;font-stretch:normal;font-size:221.14256287px;line-height:125%;font-family:sans-serif;-inkscape-font-specification:'sans-serif, Bold';text-align:start;letter-spacing:0px;word-spacing:0px;writing-mode:lr-tb;text-anchor:start;fill:#000000;fill-opacity:1;stroke:none;stroke-width:1px;stroke-linecap:butt;stroke-linejoin:miter;stroke-opacity:1"
       d="m 1725.2433,814.99224 q -25.6992,0 -41.8962,-15.76505 -16.0889,-15.76505 -16.0889,-42.00413 l 0,-3.02343 q 0,-17.6007 6.8027,-31.42211 6.8027,-13.92939 19.2204,-21.38 12.5256,-7.55858 28.5066,-7.55858 23.9715,0 37.685,15.11717 13.8214,15.11716 13.8214,42.86796 l 0,12.74162 -74.3981,0 q 1.5117,11.44585 9.0703,18.35656 7.6666,6.9107 19.3284,6.9107 18.0326,0 28.1827,-13.06555 l 15.3332,17.16878 q -7.0187,9.93414 -19.0045,15.54909 -11.9857,5.50697 -26.563,5.50697 z"
       id="path4330" />
    <path
       style="font-style:normal;font-variant:normal;font-weight:bold;font-stretch:normal;font-size:221.14256287px;line-height:125%;font-family:sans-serif;-inkscape-font-specification:'sans-serif, Bold';text-align:start;letter-spacing:0px;word-spacing:0px;writing-mode:lr-tb;text-anchor:start;fill:#000000;fill-opacity:1;stroke:none;stroke-width:1px;stroke-linecap:butt;stroke-linejoin:miter;stroke-opacity:1"
       d="m 1790.895,665.7642 q 0,-7.01869 4.6431,-11.55384 4.7511,-4.53515 12.8496,-4.53515 7.9905,0 12.7416,4.53515 4.7511,4.53515 4.7511,11.55384 0,7.12666 -4.8591,11.66181 -4.7511,4.53515 -12.6336,4.53515 -7.8825,0 -12.7416,-4.53515 -4.7511,-4.53515 -4.7511,-11.66181 z"
       id="path4328" />
    <path
       style="font-style:normal;font-variant:normal;font-weight:bold;font-stretch:normal;font-size:221.14256287px;line-height:125%;font-family:sans-serif;-inkscape-font-specification:'sans-serif, Bold';text-align:start;letter-spacing:0px;word-spacing:0px;writing-mode:lr-tb;text-anchor:start;fill:#000000;fill-opacity:1;stroke:none;stroke-width:1px;stroke-linecap:butt;stroke-linejoin:miter;stroke-opacity:1"
       d="m 1824.0448,812.83264 -31.3142,0 0,-116.83411 31.3142,0 0,116.83411 z"
       id="path4326" />
    <path
       style="font-style:normal;font-variant:normal;font-weight:bold;font-stretch:normal;font-size:221.14256287px;line-height:125%;font-family:sans-serif;-inkscape-font-specification:'sans-serif, Bold';text-align:start;letter-spacing:0px;word-spacing:0px;writing-mode:lr-tb;text-anchor:start;fill:#ffffff;fill-opacity:1;stroke:#ffffff;stroke-width:1px;stroke-linecap:butt;stroke-linejoin:miter;stroke-opacity:1"
       d="m 1721.68,719.1062 q -9.2863,0 -15.1172,6.26283 -5.7229,6.26283 -7.3426,17.92464 l 43.4078,0 0,-2.48353 q -0.2159,-10.36606 -5.6149,-15.98101 -5.399,-5.72293 -15.3331,-5.72293 z"
       id="path4332" />
    <path
       style="font-style:normal;font-variant:normal;font-weight:bold;font-stretch:normal;font-size:221.14256287px;line-height:125%;font-family:sans-serif;-inkscape-font-specification:'sans-serif, Bold';text-align:start;letter-spacing:0px;word-spacing:0px;writing-mode:lr-tb;text-anchor:start;fill:#000000;fill-opacity:1;stroke:none;stroke-width:1px;stroke-linecap:butt;stroke-linejoin:miter;stroke-opacity:1"
       d="m 1903.6259,814.99224 q -25.6992,0 -41.8962,-15.76505 -16.089,-15.76505 -16.089,-42.00413 l 0,-3.02343 q 0,-17.6007 6.8027,-31.42211 6.8028,-13.92939 19.2204,-21.38 12.5257,-7.55858 28.5067,-7.55858 23.9715,0 37.6849,15.11717 13.8215,15.11716 13.8215,42.86796 l 0,12.74162 -74.3981,0 q 1.5117,11.44585 9.0703,18.35656 7.6666,6.9107 19.3284,6.9107 18.0326,0 28.1827,-13.06555 l 15.3331,17.16878 q -7.0187,9.93414 -19.0044,15.54909 -11.9858,5.50697 -26.563,5.50697 z"
       id="path4322" />
    <path
       style="font-style:normal;font-variant:normal;font-weight:bold;font-stretch:normal;font-size:221.14256287px;line-height:125%;font-family:sans-serif;-inkscape-font-specification:'sans-serif, Bold';text-align:start;letter-spacing:0px;word-spacing:0px;writing-mode:lr-tb;text-anchor:start;fill:#000000;fill-opacity:1;stroke:none;stroke-width:1px;stroke-linecap:butt;stroke-linejoin:miter;stroke-opacity:1"
       d="m 2032.7697,780.54669 q 0,-5.72293 -5.7229,-8.96232 -5.615,-3.34737 -18.1406,-5.93889 -41.6802,-8.74636 -41.6802,-35.41736 0,-15.54909 12.8496,-25.91514 12.9575,-10.47404 33.7976,-10.47404 22.2439,0 35.5254,10.47404 13.3895,10.47403 13.3895,27.2109 l -31.2062,0 q 0,-6.69475 -4.3192,-11.01394 -4.3192,-4.42717 -13.4975,-4.42717 -7.8825,0 -12.2017,3.56333 -4.3192,3.56333 -4.3192,9.0703 0,5.18303 4.8591,8.42242 4.9671,3.13142 16.6289,5.50697 11.6618,2.26758 19.6523,5.18303 24.7274,9.0703 24.7274,31.42211 0,15.98101 -13.7134,25.91515 -13.7135,9.82616 -35.4174,9.82616 -14.6852,0 -26.1311,-5.18303 -11.3379,-5.29101 -17.8167,-14.36131 -6.4788,-9.17828 -6.4788,-19.7603 l 29.5865,0 q 0.4319,8.31444 6.1549,12.74161 5.7229,4.42717 15.3331,4.42717 8.9623,0 13.4974,-3.34737 4.6432,-3.45535 4.6432,-8.96232 z"
       id="path4320" />
    <path
       style="font-style:normal;font-variant:normal;font-weight:bold;font-stretch:normal;font-size:221.14256287px;line-height:125%;font-family:sans-serif;-inkscape-font-specification:'sans-serif, Bold';text-align:start;letter-spacing:0px;word-spacing:0px;writing-mode:lr-tb;text-anchor:start;fill:#ffffff;fill-opacity:1;stroke:#ffffff;stroke-width:1px;stroke-linecap:butt;stroke-linejoin:miter;stroke-opacity:1"
       d="m 1900.0625,719.1062 q -9.2862,0 -15.1171,6.26283 -5.723,6.26283 -7.3427,17.92464 l 43.4079,0 0,-2.48353 q -0.216,-10.36606 -5.6149,-15.98101 -5.399,-5.72293 -15.3332,-5.72293 z"
       id="path4324" />
    <path
       style="font-style:normal;font-variant:normal;font-weight:bold;font-stretch:normal;font-size:221.14256287px;line-height:125%;font-family:sans-serif;-inkscape-font-specification:'sans-serif, Bold';text-align:start;letter-spacing:0px;word-spacing:0px;writing-mode:lr-tb;text-anchor:start;fill:#000000;fill-opacity:1;stroke:none;stroke-width:1px;stroke-linecap:butt;stroke-linejoin:miter;stroke-opacity:1"
       d="m 2268.2735,812.83264 -32.3939,0 -63.0602,-103.44462 0,103.44462 -32.3939,0 0,-157.21854 32.3939,0 63.1682,103.66058 0,-103.66058 32.2859,0 0,157.21854 z"
       id="path4318" />
    <path
       style="font-style:normal;font-variant:normal;font-weight:bold;font-stretch:normal;font-size:221.14256287px;line-height:125%;font-family:sans-serif;-inkscape-font-specification:'sans-serif, Bold';text-align:start;letter-spacing:0px;word-spacing:0px;writing-mode:lr-tb;text-anchor:start;fill:#000000;fill-opacity:1;stroke:none;stroke-width:1px;stroke-linecap:butt;stroke-linejoin:miter;stroke-opacity:1"
       d="m 2348.5025,814.99224 q -25.6992,0 -41.8962,-15.76505 -16.089,-15.76505 -16.089,-42.00413 l 0,-3.02343 q 0,-17.6007 6.8028,-31.42211 6.8027,-13.92939 19.2204,-21.38 12.5256,-7.55858 28.5066,-7.55858 23.9715,0 37.685,15.11717 13.8214,15.11716 13.8214,42.86796 l 0,12.74162 -74.3981,0 q 1.5117,11.44585 9.0703,18.35656 7.6666,6.9107 19.3284,6.9107 18.0326,0 28.1827,-13.06555 l 15.3331,17.16878 q -7.0186,9.93414 -19.0044,15.54909 -11.9858,5.50697 -26.563,5.50697 z"
       id="path4314" />
    <path
       style="font-style:normal;font-variant:normal;font-weight:bold;font-stretch:normal;font-size:221.14256287px;line-height:125%;font-family:sans-serif;-inkscape-font-specification:'sans-serif, Bold';text-align:start;letter-spacing:0px;word-spacing:0px;writing-mode:lr-tb;text-anchor:start;fill:#ffffff;fill-opacity:1;stroke:#ffffff;stroke-width:1px;stroke-linecap:butt;stroke-linejoin:miter;stroke-opacity:1"
       d="m 2344.9391,719.1062 q -9.2862,0 -15.1171,6.26283 -5.723,6.26283 -7.3426,17.92464 l 43.4078,0 0,-2.48353 q -0.2159,-10.36606 -5.6149,-15.98101 -5.399,-5.72293 -15.3332,-5.72293 z"
       id="path4316" />
    <path
       style="font-style:normal;font-variant:normal;font-weight:bold;font-stretch:normal;font-size:221.14256287px;line-height:125%;font-family:sans-serif;-inkscape-font-specification:'sans-serif, Bold';text-align:start;letter-spacing:0px;word-spacing:0px;writing-mode:lr-tb;text-anchor:start;fill:#000000;fill-opacity:1;stroke:none;stroke-width:1px;stroke-linecap:butt;stroke-linejoin:miter;stroke-opacity:1"
       d="m 2451.7312,667.27592 0,28.72261 19.9762,0 0,22.89171 -19.9762,0 0,58.30908 q 0,6.47878 2.4835,9.28626 2.4835,2.80747 9.5022,2.80747 5.183,0 9.1783,-0.75586 l 0,23.64757 q -9.1783,2.80748 -18.8965,2.80748 -32.8258,0 -33.4737,-33.14979 l 0,-62.95221 -17.0608,0 0,-22.89171 17.0608,0 0,-28.72261 31.2062,0 z"
       id="path4312" />
    <path
       style="font-style:normal;font-variant:normal;font-weight:bold;font-stretch:normal;font-size:221.14256287px;line-height:125%;font-family:sans-serif;-inkscape-font-specification:'sans-serif, Bold';text-align:start;letter-spacing:0px;word-spacing:0px;writing-mode:lr-tb;text-anchor:start;fill:#000000;fill-opacity:1;stroke:none;stroke-width:1px;stroke-linecap:butt;stroke-linejoin:miter;stroke-opacity:1"
       d="m 2524.9414,787.67336 57.1213,0 0,25.15928 -96.9658,0 0,-19.00444 54.9617,-72.5624 -53.342,0 0,-25.26727 93.6184,0 0,18.46454 -55.3936,73.21029 z"
       id="path4310" />
    <path
       style="font-style:normal;font-variant:normal;font-weight:bold;font-stretch:normal;font-size:221.14256287px;line-height:125%;font-family:sans-serif;-inkscape-font-specification:'sans-serif, Bold';text-align:start;letter-spacing:0px;word-spacing:0px;writing-mode:lr-tb;text-anchor:start;fill:#000000;fill-opacity:1;stroke:none;stroke-width:1px;stroke-linecap:butt;stroke-linejoin:miter;stroke-opacity:1"
       d="m 2717.7933,758.0869 -60.7926,0 0,-25.15929 60.7926,0 0,25.15929 z"
       id="path4308" />
    <path
       style="font-style:normal;font-variant:normal;font-weight:bold;font-stretch:normal;font-size:221.14256287px;line-height:125%;font-family:sans-serif;-inkscape-font-specification:'sans-serif, Bold';text-align:start;letter-spacing:0px;word-spacing:0px;writing-mode:lr-tb;text-anchor:start;fill:#000000;fill-opacity:1;stroke:none;stroke-width:1px;stroke-linecap:butt;stroke-linejoin:miter;stroke-opacity:1"
       d="m 2870.0448,631.96653 q 0,-5.83091 4.3192,-9.71818 4.4272,-3.99525 10.69,-3.99525 6.3708,0 10.582,3.99525 4.3192,3.99525 4.3192,9.71818 0,5.61495 -4.1032,9.71818 -4.1033,3.99525 -10.798,3.99525 -6.6948,0 -10.906,-3.99525 -4.1032,-4.10323 -4.1032,-9.71818 z"
       id="path4306" />
    <path
       style="font-style:normal;font-variant:normal;font-weight:bold;font-stretch:normal;font-size:221.14256287px;line-height:125%;font-family:sans-serif;-inkscape-font-specification:'sans-serif, Bold';text-align:start;letter-spacing:0px;word-spacing:0px;writing-mode:lr-tb;text-anchor:start;fill:#000000;fill-opacity:1;stroke:none;stroke-width:1px;stroke-linecap:butt;stroke-linejoin:miter;stroke-opacity:1"
       d="m 2847.369,631.96653 q 0,5.72293 -4.2112,9.71818 -4.2112,3.88727 -10.7979,3.88727 -6.6948,0 -10.798,-3.99525 -4.1033,-3.99525 -4.1033,-9.6102 0,-5.61495 4.1033,-9.6102 4.1032,-4.10323 10.798,-4.10323 6.6947,0 10.7979,4.10323 4.2112,3.99525 4.2112,9.6102 z"
       id="path4304" />
    <path
       style="font-style:normal;font-variant:normal;font-weight:bold;font-stretch:normal;font-size:221.14256287px;line-height:125%;font-family:sans-serif;-inkscape-font-specification:'sans-serif, Bold';text-align:start;letter-spacing:0px;word-spacing:0px;writing-mode:lr-tb;text-anchor:start;fill:#000000;fill-opacity:1;stroke:none;stroke-width:1px;stroke-linecap:butt;stroke-linejoin:miter;stroke-opacity:1"
       d="m 2919.3915,655.6141 0,103.5526 q 0,25.80716 -16.1969,40.81635 -16.089,15.00919 -44.0558,15.00919 -27.5348,0 -43.7318,-14.57727 -16.1969,-14.57727 -16.5209,-40.0605 l 0,-104.74037 32.394,0 0,103.76856 q 0,15.4411 7.3426,22.56777 7.4506,7.01868 20.5161,7.01868 27.3189,0 27.7508,-28.72261 l 0,-104.6324 32.5019,0 z"
       id="path4302" />
    <path
       style="font-style:normal;font-variant:normal;font-weight:bold;font-stretch:normal;font-size:221.14256287px;line-height:125%;font-family:sans-serif;-inkscape-font-specification:'sans-serif, Bold';text-align:start;letter-spacing:0px;word-spacing:0px;writing-mode:lr-tb;text-anchor:start;fill:#000000;fill-opacity:1;stroke:none;stroke-width:1px;stroke-linecap:butt;stroke-linejoin:miter;stroke-opacity:1"
       d="m 3049.1833,755.49539 q 0,28.07473 -11.9858,43.83978 -11.9857,15.65707 -33.4737,15.65707 -19.0045,0 -30.3423,-14.57727 l -1.4038,12.41767 -28.0747,0 0,-165.85692 31.2061,0 0,59.49685 q 10.798,-12.63363 28.3987,-12.63363 21.38,0 33.4737,15.76504 12.2018,15.65707 12.2018,44.16373 l 0,1.72768 z"
       id="path4298" />
    <path
       style="font-style:normal;font-variant:normal;font-weight:bold;font-stretch:normal;font-size:221.14256287px;line-height:125%;font-family:sans-serif;-inkscape-font-specification:'sans-serif, Bold';text-align:start;letter-spacing:0px;word-spacing:0px;writing-mode:lr-tb;text-anchor:start;fill:#ffffff;fill-opacity:1;stroke:none;stroke-width:1px;stroke-linecap:butt;stroke-linejoin:miter;stroke-opacity:1"
       d="m 3017.9771,753.22781 q 0,-17.70868 -5.6149,-25.80716 -5.615,-8.20647 -16.7369,-8.20647 -14.9012,0 -20.5162,12.20172 l 0,46.10736 q 5.723,12.30969 20.7322,12.30969 15.1171,0 19.8682,-14.90121 2.2676,-7.12666 2.2676,-21.70393 z"
       id="path4300" />
    <path
       style="font-style:normal;font-variant:normal;font-weight:bold;font-stretch:normal;font-size:221.14256287px;line-height:125%;font-family:sans-serif;-inkscape-font-specification:'sans-serif, Bold';text-align:start;letter-spacing:0px;word-spacing:0px;writing-mode:lr-tb;text-anchor:start;fill:#000000;fill-opacity:1;stroke:none;stroke-width:1px;stroke-linecap:butt;stroke-linejoin:miter;stroke-opacity:1"
       d="m 3122.0696,814.99224 q -25.6992,0 -41.8961,-15.76505 -16.089,-15.76505 -16.089,-42.00413 l 0,-3.02343 q 0,-17.6007 6.8027,-31.42211 6.8027,-13.92939 19.2204,-21.38 12.5257,-7.55858 28.5067,-7.55858 23.9715,0 37.6849,15.11717 13.8214,15.11716 13.8214,42.86796 l 0,12.74162 -74.398,0 q 1.5117,11.44585 9.0703,18.35656 7.6665,6.9107 19.3283,6.9107 18.0327,0 28.1827,-13.06555 l 15.3332,17.16878 q -7.0187,9.93414 -19.0045,15.54909 -11.9857,5.50697 -26.563,5.50697 z"
       id="path4294" />
    <path
       style="font-style:normal;font-variant:normal;font-weight:bold;font-stretch:normal;font-size:221.14256287px;line-height:125%;font-family:sans-serif;-inkscape-font-specification:'sans-serif, Bold';text-align:start;letter-spacing:0px;word-spacing:0px;writing-mode:lr-tb;text-anchor:start;fill:#ffffff;fill-opacity:1;stroke:none;stroke-width:1px;stroke-linecap:butt;stroke-linejoin:miter;stroke-opacity:1"
       d="m 3118.5063,719.1062 q -9.2863,0 -15.1172,6.26283 -5.7229,6.26283 -7.3426,17.92464 l 43.4079,0 0,-2.48353 q -0.216,-10.36606 -5.615,-15.98101 -5.399,-5.72293 -15.3331,-5.72293 z"
       id="path4296" />
    <path
       style="font-style:normal;font-variant:normal;font-weight:bold;font-stretch:normal;font-size:221.14256287px;line-height:125%;font-family:sans-serif;-inkscape-font-specification:'sans-serif, Bold';text-align:start;letter-spacing:0px;word-spacing:0px;writing-mode:lr-tb;text-anchor:start;fill:#000000;fill-opacity:1;stroke:none;stroke-width:1px;stroke-linecap:butt;stroke-linejoin:miter;stroke-opacity:1"
       d="m 3253.5889,725.26105 q -6.3708,-0.86384 -11.2299,-0.86384 -17.7087,0 -23.2157,11.98576 l 0,76.44967 -31.2061,0 0,-116.83411 29.4784,0 0.8639,13.92939 q 9.3942,-16.08898 26.0231,-16.08898 5.183,0 9.7182,1.40374 l -0.4319,30.01837 z"
       id="path4292" />
    <path
       style="font-style:normal;font-variant:normal;font-weight:bold;font-stretch:normal;font-size:221.14256287px;line-height:125%;font-family:sans-serif;-inkscape-font-specification:'sans-serif, Bold';text-align:start;letter-spacing:0px;word-spacing:0px;writing-mode:lr-tb;text-anchor:start;fill:#000000;fill-opacity:1;stroke:none;stroke-width:1px;stroke-linecap:butt;stroke-linejoin:miter;stroke-opacity:1"
       d="m 3333.386,812.83264 q -2.1596,-4.21121 -3.1314,-10.47404 -11.3379,12.63364 -29.4785,12.63364 -17.1688,0 -28.5067,-9.93414 -11.2299,-9.93414 -11.2299,-25.05131 0,-18.57252 13.7135,-28.50666 13.8214,-9.93413 39.8445,-10.04211 l 14.3613,0 0,-6.69475 q 0,-8.09848 -4.2112,-12.95757 -4.1032,-4.85909 -13.0656,-4.85909 -7.8825,0 -12.4176,3.77929 -4.4272,3.77929 -4.4272,10.36606 l -31.2062,0 q 0,-10.1501 6.2629,-18.78848 6.2628,-8.63838 17.7086,-13.49747 11.4459,-4.96707 25.6992,-4.96707 21.596,0 34.2296,10.90595 12.7416,10.79798 12.7416,30.4503 l 0,50.64251 q 0.108,16.62888 4.6432,25.15929 l 0,1.83565 -31.5301,0 z"
       id="path4288" />
    <path
       style="font-style:normal;font-variant:normal;font-weight:bold;font-stretch:normal;font-size:221.14256287px;line-height:125%;font-family:sans-serif;-inkscape-font-specification:'sans-serif, Bold';text-align:start;letter-spacing:0px;word-spacing:0px;writing-mode:lr-tb;text-anchor:start;fill:#ffffff;fill-opacity:1;stroke:none;stroke-width:1px;stroke-linecap:butt;stroke-linejoin:miter;stroke-opacity:1"
       d="m 3307.5788,791.12871 q 6.9107,0 12.7416,-3.02344 5.8309,-3.13141 8.6384,-8.31444 l 0,-20.08423 -11.6618,0 q -23.4316,0 -24.9433,16.19696 l -0.108,1.83566 q 0,5.8309 4.1032,9.6102 4.1032,3.77929 11.2299,3.77929 z"
       id="path4290" />
    <path
       style="font-style:normal;font-variant:normal;font-weight:bold;font-stretch:normal;font-size:221.14256287px;line-height:125%;font-family:sans-serif;-inkscape-font-specification:'sans-serif, Bold';text-align:start;letter-spacing:0px;word-spacing:0px;writing-mode:lr-tb;text-anchor:start;fill:#000000;fill-opacity:1;stroke:none;stroke-width:1px;stroke-linecap:butt;stroke-linejoin:miter;stroke-opacity:1"
       d="m 3417.3942,812.83264 -31.3141,0 0,-165.85692 31.3141,0 0,165.85692 z"
       id="path4286" />
    <path
       style="font-style:normal;font-variant:normal;font-weight:bold;font-stretch:normal;font-size:221.14256287px;line-height:125%;font-family:sans-serif;-inkscape-font-specification:'sans-serif, Bold';text-align:start;letter-spacing:0px;word-spacing:0px;writing-mode:lr-tb;text-anchor:start;fill:#000000;fill-opacity:1;stroke:none;stroke-width:1px;stroke-linecap:butt;stroke-linejoin:miter;stroke-opacity:1"
       d="m 3476.1352,812.83264 -31.3142,0 0,-165.85692 31.3142,0 0,165.85692 z"
       id="path4284" />
    <path
       style="font-style:normal;font-variant:normal;font-weight:bold;font-stretch:normal;font-size:221.14256287px;line-height:125%;font-family:sans-serif;-inkscape-font-specification:'sans-serif, Bold';text-align:start;letter-spacing:0px;word-spacing:0px;writing-mode:lr-tb;text-anchor:start;fill:#000000;fill-opacity:1;stroke:none;stroke-width:1px;stroke-linecap:butt;stroke-linejoin:miter;stroke-opacity:1"
       d="m 3627.1988,800.95487 q -11.5538,14.03737 -31.962,14.03737 -18.7885,0 -28.7226,-10.79798 -9.8262,-10.79798 -10.0421,-31.63807 l 0,-76.55766 31.2061,0 0,75.47786 q 0,18.24858 16.6289,18.24858 15.873,0 21.8119,-11.01393 l 0,-82.71251 31.3142,0 0,116.83411 -29.3705,0 -0.8639,-11.87777 z"
       id="path4282" />
    <path
       style="font-style:normal;font-variant:normal;font-weight:bold;font-stretch:normal;font-size:221.14256287px;line-height:125%;font-family:sans-serif;-inkscape-font-specification:'sans-serif, Bold';text-align:start;letter-spacing:0px;word-spacing:0px;writing-mode:lr-tb;text-anchor:start;fill:#000000;fill-opacity:1;stroke:none;stroke-width:1px;stroke-linecap:butt;stroke-linejoin:miter;stroke-opacity:1"
       d="m 3709.9115,695.99853 0.9718,13.49747 q 12.5257,-15.65706 33.5817,-15.65706 18.5725,0 27.6428,10.90595 9.0703,10.90596 9.2863,32.60989 l 0,75.47786 -31.2061,0 0,-74.722 q 0,-9.93414 -4.3192,-14.36131 -4.3192,-4.53515 -14.3613,-4.53515 -13.1736,0 -19.7603,11.2299 l 0,82.38856 -31.2062,0 0,-116.83411 29.3705,0 z"
       id="path4280" />
    <path
       style="font-style:normal;font-variant:normal;font-weight:bold;font-stretch:normal;font-size:221.14256287px;line-height:125%;font-family:sans-serif;-inkscape-font-specification:'sans-serif, Bold';text-align:start;letter-spacing:0px;word-spacing:0px;writing-mode:lr-tb;text-anchor:start;fill:#000000;fill-opacity:1;stroke:none;stroke-width:1px;stroke-linecap:butt;stroke-linejoin:miter;stroke-opacity:1"
       d="m 3800.2905,753.55175 q 0,-27.31888 12.2017,-43.51585 12.3097,-16.19696 33.5817,-16.19696 17.0608,0 28.1827,12.74161 l 0,-59.60483 31.3142,0 0,165.85692 -28.1828,0 -1.5117,-12.41767 q -11.6618,14.57727 -30.0184,14.57727 -20.6241,0 -33.1497,-16.19697 -12.4177,-16.30494 -12.4177,-45.24352 z"
       id="path4276" />
    <path
       style="font-style:normal;font-variant:normal;font-weight:bold;font-stretch:normal;font-size:221.14256287px;line-height:125%;font-family:sans-serif;-inkscape-font-specification:'sans-serif, Bold';text-align:start;letter-spacing:0px;word-spacing:0px;writing-mode:lr-tb;text-anchor:start;fill:#ffffff;fill-opacity:1;stroke:none;stroke-width:1px;stroke-linecap:butt;stroke-linejoin:miter;stroke-opacity:1"
       d="m 3831.4966,755.81932 q 0,16.41293 5.723,25.15929 5.7229,8.74636 16.6288,8.74636 14.4693,0 20.4082,-12.20171 l 0,-46.10736 q -5.8309,-12.20172 -20.1922,-12.20172 -22.5678,0 -22.5678,36.60514 z"
       id="path4278" />
    <path
       style="font-style:normal;font-variant:normal;font-weight:bold;font-stretch:normal;font-size:221.14256287px;line-height:125%;font-family:sans-serif;-inkscape-font-specification:'sans-serif, Bold';text-align:start;letter-spacing:0px;word-spacing:0px;writing-mode:lr-tb;text-anchor:start;fill:#000000;fill-opacity:1;stroke:none;stroke-width:1px;stroke-linecap:butt;stroke-linejoin:miter;stroke-opacity:1"
       d="m 3993.7901,812.83264 0,-93.9424 -17.3848,0 0,-22.89171 17.3848,0 0,-9.93413 q 0,-19.65232 11.2299,-30.4503 11.3379,-10.90596 31.638,-10.90596 6.4788,0 15.8731,2.1596 l -0.324,24.18747 q -3.8872,-0.97182 -9.5022,-0.97182 -17.6007,0 -17.6007,16.5209 l 0,9.39424 23.2157,0 0,22.89171 -23.2157,0 0,93.9424 -31.3141,0 z"
       id="path4274" />
    <path
       style="font-style:normal;font-variant:normal;font-weight:bold;font-stretch:normal;font-size:221.14256287px;line-height:125%;font-family:sans-serif;-inkscape-font-specification:'sans-serif, Bold';text-align:start;letter-spacing:0px;word-spacing:0px;writing-mode:lr-tb;text-anchor:start;fill:#000000;fill-opacity:1;stroke:none;stroke-width:1px;stroke-linecap:butt;stroke-linejoin:miter;stroke-opacity:1"
       d="m 4125.8494,665.44026 q 0,-5.83091 4.3192,-9.71818 4.4271,-3.99525 10.69,-3.99525 6.3708,0 10.582,3.99525 4.3192,3.99525 4.3192,9.71818 0,5.61495 -4.1033,9.71818 -4.1032,3.99525 -10.7979,3.99525 -6.6948,0 -10.906,-3.99525 -4.1032,-4.10323 -4.1032,-9.71818 z"
       id="path4272" />
    <path
       style="font-style:normal;font-variant:normal;font-weight:bold;font-stretch:normal;font-size:221.14256287px;line-height:125%;font-family:sans-serif;-inkscape-font-specification:'sans-serif, Bold';text-align:start;letter-spacing:0px;word-spacing:0px;writing-mode:lr-tb;text-anchor:start;fill:#000000;fill-opacity:1;stroke:none;stroke-width:1px;stroke-linecap:butt;stroke-linejoin:miter;stroke-opacity:1"
       d="m 4103.1736,665.44026 q 0,5.72293 -4.2112,9.71818 -4.2112,3.88727 -10.798,3.88727 -6.6947,0 -10.7979,-3.99525 -4.1033,-3.99525 -4.1033,-9.6102 0,-5.61495 4.1033,-9.6102 4.1032,-4.10323 10.7979,-4.10323 6.6948,0 10.798,4.10323 4.2112,3.99525 4.2112,9.6102 z"
       id="path4270" />
    <path
       style="font-style:normal;font-variant:normal;font-weight:bold;font-stretch:normal;font-size:221.14256287px;line-height:125%;font-family:sans-serif;-inkscape-font-specification:'sans-serif, Bold';text-align:start;letter-spacing:0px;word-spacing:0px;writing-mode:lr-tb;text-anchor:start;fill:#000000;fill-opacity:1;stroke:none;stroke-width:1px;stroke-linecap:butt;stroke-linejoin:miter;stroke-opacity:1"
       d="m 4134.7037,800.95487 q -11.5538,14.03737 -31.962,14.03737 -18.7885,0 -28.7226,-10.79798 -9.8262,-10.79798 -10.0421,-31.63807 l 0,-76.55766 31.2061,0 0,75.47786 q 0,18.24858 16.6289,18.24858 15.873,0 21.8119,-11.01393 l 0,-82.71251 31.3141,0 0,116.83411 -29.3704,0 -0.8639,-11.87777 z"
       id="path4268" />
    <path
       style="font-style:normal;font-variant:normal;font-weight:bold;font-stretch:normal;font-size:221.14256287px;line-height:125%;font-family:sans-serif;-inkscape-font-specification:'sans-serif, Bold';text-align:start;letter-spacing:0px;word-spacing:0px;writing-mode:lr-tb;text-anchor:start;fill:#000000;fill-opacity:1;stroke:none;stroke-width:1px;stroke-linecap:butt;stroke-linejoin:miter;stroke-opacity:1"
       d="m 4254.3455,725.26105 q -6.3708,-0.86384 -11.2299,-0.86384 -17.7087,0 -23.2157,11.98576 l 0,76.44967 -31.2061,0 0,-116.83411 29.4784,0 0.8639,13.92939 q 9.3942,-16.08898 26.0231,-16.08898 5.183,0 9.7182,1.40374 l -0.4319,30.01837 z"
       id="path4266" />
    <path
       style="font-style:normal;font-variant:normal;font-weight:bold;font-stretch:normal;font-size:221.14256287px;line-height:125%;font-family:sans-serif;-inkscape-font-specification:'sans-serif, Bold';text-align:start;letter-spacing:0px;word-spacing:0px;writing-mode:lr-tb;text-anchor:start;fill:#000000;fill-opacity:1;stroke:none;stroke-width:1px;stroke-linecap:butt;stroke-linejoin:miter;stroke-opacity:1"
       d="m 4392.4515,812.83264 q -2.1596,-4.21121 -3.1314,-10.47404 -11.3379,12.63364 -29.4785,12.63364 -17.1688,0 -28.5066,-9.93414 -11.2299,-9.93414 -11.2299,-25.05131 0,-18.57252 13.7134,-28.50666 13.8214,-9.93413 39.8445,-10.04211 l 14.3613,0 0,-6.69475 q 0,-8.09848 -4.2112,-12.95757 -4.1032,-4.85909 -13.0655,-4.85909 -7.8825,0 -12.4177,3.77929 -4.4272,3.77929 -4.4272,10.36606 l -31.2061,0 q 0,-10.1501 6.2628,-18.78848 6.2628,-8.63838 17.7087,-13.49747 11.4459,-4.96707 25.6992,-4.96707 21.5959,0 34.2296,10.90595 12.7416,10.79798 12.7416,30.4503 l 0,50.64251 q 0.108,16.62888 4.6431,25.15929 l 0,1.83565 -31.5301,0 z"
       id="path4262" />
    <path
       style="font-style:normal;font-variant:normal;font-weight:bold;font-stretch:normal;font-size:221.14256287px;line-height:125%;font-family:sans-serif;-inkscape-font-specification:'sans-serif, Bold';text-align:start;letter-spacing:0px;word-spacing:0px;writing-mode:lr-tb;text-anchor:start;fill:#ffffff;fill-opacity:1;stroke:none;stroke-width:1px;stroke-linecap:butt;stroke-linejoin:miter;stroke-opacity:1"
       d="m 4366.6444,791.12871 q 6.9107,0 12.7416,-3.02344 5.8309,-3.13141 8.6383,-8.31444 l 0,-20.08423 -11.6618,0 q -23.4316,0 -24.9433,16.19696 l -0.108,1.83566 q 0,5.8309 4.1033,9.6102 4.1032,3.77929 11.2299,3.77929 z"
       id="path4264" />
    <path
       style="font-style:normal;font-variant:normal;font-weight:bold;font-stretch:normal;font-size:221.14256287px;line-height:125%;font-family:sans-serif;-inkscape-font-specification:'sans-serif, Bold';text-align:start;letter-spacing:0px;word-spacing:0px;writing-mode:lr-tb;text-anchor:start;fill:#000000;fill-opacity:1;stroke:none;stroke-width:1px;stroke-linecap:butt;stroke-linejoin:miter;stroke-opacity:1"
       d="m 4476.4599,812.83264 -31.3142,0 0,-165.85692 31.3142,0 0,165.85692 z"
       id="path4260" />
    <path
       style="font-style:normal;font-variant:normal;font-weight:bold;font-stretch:normal;font-size:221.14256287px;line-height:125%;font-family:sans-serif;-inkscape-font-specification:'sans-serif, Bold';text-align:start;letter-spacing:0px;word-spacing:0px;writing-mode:lr-tb;text-anchor:start;fill:#000000;fill-opacity:1;stroke:none;stroke-width:1px;stroke-linecap:butt;stroke-linejoin:miter;stroke-opacity:1"
       d="m 4535.2008,812.83264 -31.3141,0 0,-165.85692 31.3141,0 0,165.85692 z"
       id="path4258" />
    <path
       style="font-style:normal;font-variant:normal;font-weight:bold;font-stretch:normal;font-size:221.14256287px;line-height:125%;font-family:sans-serif;-inkscape-font-specification:'sans-serif, Bold';text-align:start;letter-spacing:0px;word-spacing:0px;writing-mode:lr-tb;text-anchor:start;fill:#000000;fill-opacity:1;stroke:none;stroke-width:1px;stroke-linecap:butt;stroke-linejoin:miter;stroke-opacity:1"
       d="m 4614.7819,814.99224 q -25.6992,0 -41.8962,-15.76505 -16.0889,-15.76505 -16.0889,-42.00413 l 0,-3.02343 q 0,-17.6007 6.8027,-31.42211 6.8027,-13.92939 19.2204,-21.38 12.5256,-7.55858 28.5066,-7.55858 23.9716,0 37.685,15.11717 13.8214,15.11716 13.8214,42.86796 l 0,12.74162 -74.3981,0 q 1.5117,11.44585 9.0703,18.35656 7.6666,6.9107 19.3284,6.9107 18.0326,0 28.1827,-13.06555 l 15.3332,17.16878 q -7.0187,9.93414 -19.0045,15.54909 -11.9857,5.50697 -26.563,5.50697 z"
       id="path4254" />
    <path
       style="font-style:normal;font-variant:normal;font-weight:bold;font-stretch:normal;font-size:221.14256287px;line-height:125%;font-family:sans-serif;-inkscape-font-specification:'sans-serif, Bold';text-align:start;letter-spacing:0px;word-spacing:0px;writing-mode:lr-tb;text-anchor:start;fill:#ffffff;fill-opacity:1;stroke:none;stroke-width:1px;stroke-linecap:butt;stroke-linejoin:miter;stroke-opacity:1"
       d="m 4611.2186,719.1062 q -9.2863,0 -15.1172,6.26283 -5.7229,6.26283 -7.3426,17.92464 l 43.4078,0 0,-2.48353 q -0.2159,-10.36606 -5.6149,-15.98101 -5.399,-5.72293 -15.3331,-5.72293 z"
       id="path4256" />
    <path
       style="font-style:normal;font-variant:normal;font-weight:bold;font-stretch:normal;font-size:221.14256287px;line-height:125%;font-family:sans-serif;-inkscape-font-specification:'sans-serif, Bold';text-align:start;letter-spacing:0px;word-spacing:0px;writing-mode:lr-tb;text-anchor:start;fill:#000000;fill-opacity:1;stroke:none;stroke-width:1px;stroke-linecap:butt;stroke-linejoin:miter;stroke-opacity:1"
       d="m 4699.4381,781.62649 q 7.8825,0 12.6336,4.64313 4.8591,4.64313 4.8591,11.87777 0,7.12667 -4.8591,11.7698 -4.7511,4.64313 -12.6336,4.64313 -7.7746,0 -12.6337,-4.64313 -4.7511,-4.64313 -4.7511,-11.7698 0,-7.12666 4.7511,-11.76979 4.8591,-4.75111 12.6337,-4.75111 z"
       id="path4252" />
    <path
       style="font-style:normal;font-variant:normal;font-weight:bold;font-stretch:normal;font-size:221.14256287px;line-height:125%;font-family:sans-serif;-inkscape-font-specification:'sans-serif, Bold';text-align:start;letter-spacing:0px;word-spacing:0px;writing-mode:lr-tb;text-anchor:start;fill:#000000;fill-opacity:1;stroke:none;stroke-width:1px;stroke-linecap:butt;stroke-linejoin:miter;stroke-opacity:1"
       d="m 4712.3956,764.56569 -25.9151,0 -3.6713,-108.95159 33.2577,0 -3.6713,108.95159 z"
       id="path3752" />
  </g>
</svg>
